Varta-Light.ufo
<glyph name="dotlessi" format="2">
  <advance width="490.0"/>
  <unicode hex="0131"/>
  <anchor x="245.0" y="0.0" name="bottom"/>
  <anchor x="441.0" y="10.0" name="ogonek"/>
  <anchor x="245.0" y="990.0" name="top"/>
  <outline>
    <contour>
      <point x="176.0" y="0.0" type="line"/>
      <point x="313.0" y="0.0" type="line"/>
      <point x="313.0" y="990.0" type="line"/>
      <point x="176.0" y="990.0" type="line"/>
    </contour>
  </outline>
</glyph>
<glyph name="macroncomb" format="2">
  <unicode hex="0304"/>
  <anchor x="552.5" y="990.0" name="_top"/>
  <anchor x="552.5" y="1334.0" name="top"/>
  <outline>
    <contour>
      <point x="309.0" y="1235.0" type="line"/>
      <point x="796.0" y="1235.0" type="line"/>
      <point x="796.0" y="1334.0" type="line"/>
      <point x="309.0" y="1334.0" type="line"/>
    </contour>
  </outline>
</glyph>
<glyph name="brevecomb" format="2">
  <unicode hex="0306"/>
  <anchor x="255.0" y="990.0" name="_top"/>
  <anchor x="255.0" y="1327.0" name="top"/>
  <outline>
    <contour>
      <point x="255.0" y="1106.0" type="curve" smooth="yes"/>
      <point x="416.0" y="1106.0"/>
      <point x="487.0" y="1221.0"/>
      <point x="500.0" y="1327.0" type="curve"/>
      <point x="412.0" y="1327.0" type="line"/>
      <point x="400.0" y="1259.0"/>
      <point x="353.0" y="1190.0"/>
      <point x="255.0" y="1190.0" type="curve" smooth="yes"/>
      <point x="157.0" y="1190.0"/>
      <point x="110.0" y="1259.0"/>
      <point x="98.0" y="1327.0" type="curve"/>
      <point x="10.0" y="1327.0" type="line"/>
      <point x="23.0" y="1221.0"/>
      <point x="94.0" y="1106.0"/>
    </contour>
  </outline>
</glyph>
<glyph name="ringcomb" format="2">
  <unicode hex="030A"/>
  <anchor x="553.0" y="990.0" name="_top"/>
  <anchor x="553.0" y="1476.0" name="top"/>
  <outline>
    <contour>
      <point x="552.0" y="1108.0" type="curve" smooth="yes"/>
      <point x="657.0" y="1108.0"/>
      <point x="735.0" y="1182.0"/>
      <point x="735.0" y="1292.0" type="curve" smooth="yes"/>
      <point x="735.0" y="1402.0"/>
      <point x="657.0" y="1476.0"/>
      <point x="552.0" y="1476.0" type="curve" smooth="yes"/>
      <point x="448.0" y="1476.0"/>
      <point x="371.0" y="1402.0"/>
      <point x="371.0" y="1292.0" type="curve" smooth="yes"/>
      <point x="371.0" y="1182.0"/>
      <point x="448.0" y="1108.0"/>
    </contour>
    <contour>
      <point x="552.0" y="1174.0" type="curve" smooth="yes"/>
      <point x="495.0" y="1174.0"/>
      <point x="450.0" y="1221.0"/>
      <point x="450.0" y="1292.0" type="curve" smooth="yes"/>
      <point x="450.0" y="1363.0"/>
      <point x="495.0" y="1410.0"/>
      <point x="552.0" y="1410.0" type="curve" smooth="yes"/>
      <point x="609.0" y="1410.0"/>
      <point x="654.0" y="1363.0"/>
      <point x="654.0" y="1292.0" type="curve" smooth="yes"/>
      <point x="654.0" y="1221.0"/>
      <point x="609.0" y="1174.0"/>
    </contour>
  </outline>
</glyph>
<glyph name="caroncomb" format="2">
  <unicode hex="030C"/>
  <anchor x="552.5" y="990.0" name="_top"/>
  <anchor x="552.5" y="1457.0" name="top"/>
  <outline>
    <contour>
      <point x="494.0" y="1173.0" type="line"/>
      <point x="610.0" y="1173.0" type="line"/>
      <point x="803.0" y="1457.0" type="line"/>
      <point x="700.0" y="1457.0" type="line"/>
      <point x="556.0" y="1263.0" type="line"/>
      <point x="548.0" y="1263.0" type="line"/>
      <point x="404.0" y="1457.0" type="line"/>
      <point x="302.0" y="1457.0" type="line"/>
    </contour>
  </outline>
</glyph>
<glyph name="eLongCandra-deva" format="2">
  <unicode hex="0955"/>
  <anchor x="353.0" y="1273.0" name="_top"/>
  <outline>
    <contour>
      <point x="370.0" y="1612.0" type="curve" smooth="yes"/>
      <point x="507.0" y="1612.0"/>
      <point x="631.0" y="1670.0"/>
      <point x="695.0" y="1740.0" type="curve"/>
      <point x="665.0" y="1861.0" type="line"/>
      <point x="581.0" y="1775.0"/>
      <point x="497.0" y="1720.0"/>
      <point x="364.0" y="1720.0" type="curve" smooth="yes"/>
      <point x="229.0" y="1720.0"/>
      <point x="126.0" y="1791.0"/>
      <point x="68.0" y="1843.0" type="curve"/>
      <point x="10.0" y="1777.0" type="line"/>
      <point x="76.0" y="1692.0"/>
      <point x="217.0" y="1612.0"/>
    </contour>
    <contour>
      <point x="42.0" y="1434.0" type="line"/>
      <point x="664.0" y="1434.0" type="line"/>
      <point x="664.0" y="1538.0" type="line"/>
      <point x="42.0" y="1538.0" type="line"/>
    </contour>
  </outline>
</glyph>
<glyph name="zero-deva" format="2">
  <advance width="966.0"/>
  <unicode hex="0966"/>
  <outline>
    <contour>
      <point x="486.0" y="215.0" type="curve" smooth="yes"/>
      <point x="634.0" y="215.0"/>
      <point x="809.0" y="306.0"/>
      <point x="809.0" y="566.0" type="curve" smooth="yes"/>
      <point x="809.0" y="776.0"/>
      <point x="695.0" y="925.0"/>
      <point x="480.0" y="925.0" type="curve" smooth="yes"/>
      <point x="332.0" y="925.0"/>
      <point x="157.0" y="834.0"/>
      <point x="157.0" y="574.0" type="curve" smooth="yes"/>
      <point x="157.0" y="369.0"/>
      <point x="268.0" y="215.0"/>
    </contour>
    <contour>
      <point x="479.0" y="321.0" type="curve"/>
      <point x="352.0" y="321.0"/>
      <point x="281.0" y="397.0"/>
      <point x="281.0" y="565.0" type="curve" smooth="yes"/>
      <point x="281.0" y="749.0"/>
      <point x="368.0" y="820.0"/>
      <point x="486.0" y="820.0" type="curve" smooth="yes"/>
      <point x="611.0" y="820.0"/>
      <point x="685.0" y="742.0"/>
      <point x="685.0" y="575.0" type="curve" smooth="yes"/>
      <point x="685.0" y="393.0"/>
      <point x="597.0" y="321.0"/>
    </contour>
  </outline>
</glyph>
<glyph name="Euro" format="2">
  <advance width="1003.0"/>
  <unicode hex="20AC"/>
  <outline>
    <contour>
      <point x="644.0" y="-25.0" type="curve" smooth="yes"/>
      <point x="794.0" y="-25.0"/>
      <point x="903.0" y="48.0"/>
      <point x="992.0" y="167.0" type="curve"/>
      <point x="907.0" y="241.0" type="line"/>
      <point x="834.0" y="140.0"/>
      <point x="758.0" y="87.0"/>
      <point x="653.0" y="87.0" type="curve" smooth="yes"/>
      <point x="473.0" y="87.0"/>
      <point x="357.0" y="241.0"/>
      <point x="322.0" y="490.0" type="curve"/>
      <point x="779.0" y="490.0" type="line"/>
      <point x="779.0" y="576.0" type="line"/>
      <point x="313.0" y="576.0" type="line"/>
      <point x="311.0" y="602.0"/>
      <point x="311.0" y="630.0"/>
      <point x="311.0" y="658.0" type="curve" smooth="yes"/>
      <point x="311.0" y="680.0"/>
      <point x="311.0" y="702.0"/>
      <point x="313.0" y="722.0" type="curve"/>
      <point x="861.0" y="722.0" type="line"/>
      <point x="861.0" y="809.0" type="line"/>
      <point x="321.0" y="809.0" type="line"/>
      <point x="353.0" y="1064.0"/>
      <point x="475.0" y="1220.0"/>
      <point x="670.0" y="1220.0" type="curve" smooth="yes"/>
      <point x="760.0" y="1220.0"/>
      <point x="830.0" y="1169.0"/>
      <point x="889.0" y="1093.0" type="curve"/>
      <point x="972.0" y="1172.0" type="line"/>
      <point x="905.0" y="1261.0"/>
      <point x="796.0" y="1332.0"/>
      <point x="674.0" y="1332.0" type="curve" smooth="yes"/>
      <point x="407.0" y="1332.0"/>
      <point x="223.0" y="1135.0"/>
      <point x="180.0" y="809.0" type="curve"/>
      <point x="48.0" y="799.0" type="line"/>
      <point x="48.0" y="722.0" type="line"/>
      <point x="171.0" y="722.0" type="line"/>
      <point x="169.0" y="701.0"/>
      <point x="169.0" y="677.0"/>
      <point x="169.0" y="653.0" type="curve" smooth="yes"/>
      <point x="169.0" y="628.0"/>
      <point x="169.0" y="601.0"/>
      <point x="171.0" y="575.0" type="curve"/>
      <point x="48.0" y="567.0" type="line"/>
      <point x="48.0" y="490.0" type="line"/>
      <point x="180.0" y="490.0" type="line"/>
      <point x="224.0" y="169.0"/>
      <point x="401.0" y="-25.0"/>
    </contour>
  </outline>
</glyph>
<glyph name="bh_ra-deva" format="2">
  <advance width="742.0"/>
  <outline>
    <contour>
      <point x="351.0" y="-32.0" type="line"/>
      <point x="945.0" y="460.0" type="line"/>
      <point x="882.0" y="538.0" type="line"/>
      <point x="273.0" y="60.0" type="line"/>
    </contour>
    <contour>
      <point x="304.0" y="551.0" type="line"/>
      <point x="430.0" y="551.0" type="line"/>
      <point x="430.0" y="1037.0" type="line" smooth="yes"/>
      <point x="430.0" y="1144.0"/>
      <point x="412.0" y="1269.0"/>
      <point x="218.0" y="1269.0" type="curve" smooth="yes"/>
      <point x="158.0" y="1269.0"/>
      <point x="108.0" y="1258.0"/>
      <point x="71.0" y="1243.0" type="curve"/>
      <point x="92.0" y="1141.0" type="line"/>
      <point x="117.0" y="1148.0"/>
      <point x="157.0" y="1158.0"/>
      <point x="200.0" y="1158.0" type="curve" smooth="yes"/>
      <point x="271.0" y="1158.0"/>
      <point x="304.0" y="1132.0"/>
      <point x="304.0" y="1041.0" type="curve" smooth="yes"/>
    </contour>
    <contour>
      <point x="321.0" y="309.0" type="line"/>
      <point x="411.0" y="312.0"/>
      <point x="429.0" y="361.0"/>
      <point x="429.0" y="419.0" type="curve" smooth="yes"/>
      <point x="429.0" y="609.0" type="line"/>
      <point x="319.0" y="609.0" type="line"/>
      <point x="151.0" y="589.0" type="line"/>
      <point x="151.0" y="498.0" type="line"/>
    </contour>
    <contour>
      <point x="310.0" y="489.0" type="line"/>
      <point x="887.0" y="489.0" type="line"/>
      <point x="887.0" y="601.0" type="line"/>
      <point x="310.0" y="601.0" type="line"/>
    </contour>
  </outline>
</glyph>
<glyph name="c_na-deva" format="2">
  <advance width="1220.0"/>
  <anchor x="944.0" y="0.0" name="bottom"/>
  <anchor x="870.0" y="1247.0" name="candra"/>
  <anchor x="329.0" y="44.0" name="nukta"/>
  <anchor x="942.0" y="1247.0" name="top"/>
  <outline>
    <contour>
      <point x="584.0" y="-121.0" type="line"/>
      <point x="606.0" y="-101.0"/>
      <point x="614.0" y="-82.0"/>
      <point x="615.0" y="-63.0" type="curve" smooth="yes"/>
      <point x="616.0" y="-43.0"/>
      <point x="608.0" y="-23.0"/>
      <point x="595.0" y="-4.0" type="curve" smooth="yes"/>
      <point x="526.0" y="94.0" type="line"/>
      <point x="508.0" y="40.0" type="line"/>
      <point x="917.0" y="357.0" type="line"/>
      <point x="872.0" y="441.0" type="line"/>
      <point x="317.0" y="47.0" type="line"/>
      <point x="373.0" y="-44.0" type="line"/>
    </contour>
    <component base="ca-deva"/>
  </outline>
</glyph>
<glyph name="caroncomb.cap" format="2">
  <anchor x="273.0" y="1346.0" name="_top"/>
  <anchor x="273.0" y="1673.0" name="top"/>
  <outline>
    <contour>
      <point x="207.0" y="1448.0" type="line"/>
      <point x="339.0" y="1448.0" type="line"/>
      <point x="536.0" y="1673.0" type="line"/>
      <point x="421.0" y="1673.0" type="line"/>
      <point x="277.0" y="1530.0" type="line"/>
      <point x="269.0" y="1530.0" type="line"/>
      <point x="125.0" y="1673.0" type="line"/>
      <point x="10.0" y="1673.0" type="line"/>
    </contour>
  </outline>
</glyph>
<glyph name="commaabovecomb.cap" format="2">
  <anchor x="104.5" y="1346.0" name="_top"/>
  <anchor x="104.5" y="1484.0" name="top"/>
  <outline>
    <contour>
      <point x="43.0" y="1115.0" type="line"/>
      <point x="154.0" y="1168.0"/>
      <point x="199.0" y="1257.0"/>
      <point x="199.0" y="1349.0" type="curve" smooth="yes"/>
      <point x="199.0" y="1437.0"/>
      <point x="165.0" y="1484.0"/>
      <point x="105.0" y="1484.0" type="curve" smooth="yes"/>
      <point x="63.0" y="1484.0"/>
      <point x="28.0" y="1457.0"/>
      <point x="28.0" y="1400.0" type="curve" smooth="yes"/>
      <point x="28.0" y="1350.0"/>
      <point x="69.0" y="1326.0"/>
      <point x="106.0" y="1326.0" type="curve" smooth="yes"/>
      <point x="112.0" y="1326.0"/>
      <point x="118.0" y="1326.0"/>
      <point x="123.0" y="1328.0" type="curve"/>
      <point x="120.0" y="1266.0"/>
      <point x="86.0" y="1213.0"/>
      <point x="10.0" y="1175.0" type="curve"/>
    </contour>
  </outline>
</glyph>
<glyph name="commaaccentcomb.cap" format="2">
  <anchor x="158.0" y="0.0" name="_bottom"/>
  <anchor x="158.0" y="-436.0" name="bottom"/>
  <outline>
    <contour>
      <point x="27.0" y="-496.0" type="line"/>
      <point x="171.0" y="-483.0"/>
      <point x="306.0" y="-429.0"/>
      <point x="306.0" y="-315.0" type="curve" smooth="yes"/>
      <point x="306.0" y="-226.0"/>
      <point x="247.0" y="-182.0"/>
      <point x="119.0" y="-160.0" type="curve"/>
      <point x="87.0" y="-231.0" type="line"/>
      <point x="146.0" y="-244.0"/>
      <point x="195.0" y="-268.0"/>
      <point x="195.0" y="-325.0" type="curve" smooth="yes"/>
      <point x="195.0" y="-379.0"/>
      <point x="121.0" y="-408.0"/>
      <point x="10.0" y="-423.0" type="curve"/>
    </contour>
  </outline>
</glyph>
<glyph name="commaturnedabovecomb.cap" format="2">
  <anchor x="105.5" y="1346.0" name="_top"/>
  <anchor x="105.5" y="1486.0" name="top"/>
  <outline>
    <contour>
      <point x="106.0" y="1117.0" type="curve" smooth="yes"/>
      <point x="148.0" y="1117.0"/>
      <point x="182.0" y="1145.0"/>
      <point x="182.0" y="1202.0" type="curve" smooth="yes"/>
      <point x="182.0" y="1253.0"/>
      <point x="141.0" y="1277.0"/>
      <point x="103.0" y="1277.0" type="curve" smooth="yes"/>
      <point x="97.0" y="1277.0"/>
      <point x="93.0" y="1277.0"/>
      <point x="86.0" y="1274.0" type="curve"/>
      <point x="90.0" y="1337.0"/>
      <point x="123.0" y="1388.0"/>
      <point x="201.0" y="1428.0" type="curve"/>
      <point x="166.0" y="1486.0" type="line"/>
      <point x="55.0" y="1433.0"/>
      <point x="10.0" y="1344.0"/>
      <point x="10.0" y="1251.0" type="curve" smooth="yes"/>
      <point x="10.0" y="1163.0"/>
      <point x="44.0" y="1117.0"/>
    </contour>
  </outline>
</glyph>
<glyph name="d_bh_ya-deva" format="2">
  <advance width="2449.0"/>
  <anchor x="2173.0" y="0.0" name="bottom"/>
  <anchor x="2138.0" y="1247.0" name="candra"/>
  <anchor x="2173.0" y="1247.0" name="top"/>
  <outline>
    <contour>
      <point x="1801.0" y="109.0" type="curve" smooth="yes"/>
      <point x="1928.0" y="109.0"/>
      <point x="2040.0" y="156.0"/>
      <point x="2131.0" y="250.0" type="curve"/>
      <point x="2135.0" y="411.0" type="line"/>
      <point x="2053.0" y="274.0"/>
      <point x="1905.0" y="224.0"/>
      <point x="1793.0" y="224.0" type="curve" smooth="yes"/>
      <point x="1646.0" y="224.0"/>
      <point x="1534.0" y="312.0"/>
      <point x="1497.0" y="480.0" type="curve"/>
      <point x="1476.0" y="432.0" type="line"/>
      <point x="1573.0" y="454.0"/>
      <point x="1754.0" y="529.0"/>
      <point x="1754.0" y="710.0" type="curve" smooth="yes"/>
      <point x="1754.0" y="841.0"/>
      <point x="1657.0" y="894.0"/>
      <point x="1479.0" y="894.0" type="curve" smooth="yes"/>
      <point x="1093.0" y="893.0" type="line"/>
      <point x="1078.0" y="788.0" type="line"/>
      <point x="1497.0" y="788.0" type="line" smooth="yes"/>
      <point x="1594.0" y="788.0"/>
      <point x="1636.0" y="757.0"/>
      <point x="1636.0" y="705.0" type="curve" smooth="yes"/>
      <point x="1636.0" y="636.0"/>
      <point x="1562.0" y="566.0"/>
      <point x="1374.0" y="514.0" type="curve"/>
      <point x="1432.0" y="249.0"/>
      <point x="1580.0" y="109.0"/>
    </contour>
    <contour>
      <point x="2236.0" y="0.0" type="line"/>
      <point x="2236.0" y="1170.0" type="line"/>
      <point x="2110.0" y="1170.0" type="line"/>
      <point x="2110.0" y="0.0" type="line"/>
    </contour>
    <contour>
      <point x="1228.0" y="1143.0" type="line"/>
      <point x="2462.0" y="1143.0" type="line"/>
      <point x="2462.0" y="1247.0" type="line"/>
      <point x="1228.0" y="1247.0" type="line"/>
    </contour>
    <contour>
      <point x="923.0" y="108.0" type="curve" smooth="yes"/>
      <point x="1040.0" y="108.0"/>
      <point x="1142.0" y="127.0"/>
      <point x="1217.0" y="177.0" type="curve" smooth="yes"/>
      <point x="1286.0" y="223.0"/>
      <point x="1312.0" y="272.0"/>
      <point x="1312.0" y="324.0" type="curve" smooth="yes"/>
      <point x="1312.0" y="399.0"/>
      <point x="1244.0" y="464.0"/>
      <point x="1139.0" y="496.0" type="curve"/>
      <point x="1062.0" y="426.0" type="line"/>
      <point x="1158.0" y="240.0" type="line"/>
      <point x="1178.0" y="281.0" type="line"/>
      <point x="1083.0" y="222.0"/>
      <point x="1003.0" y="206.0"/>
      <point x="919.0" y="206.0" type="curve" smooth="yes"/>
      <point x="737.0" y="206.0"/>
      <point x="612.0" y="281.0"/>
      <point x="612.0" y="497.0" type="curve" smooth="yes"/>
      <point x="612.0" y="706.0"/>
      <point x="711.0" y="788.0"/>
      <point x="951.0" y="788.0" type="curve"/>
      <point x="1175.0" y="788.0" type="line"/>
      <point x="1175.0" y="1178.0" type="line"/>
      <point x="1048.0" y="1178.0" type="line"/>
      <point x="1048.0" y="865.0" type="line"/>
      <point x="1107.0" y="885.0" type="line"/>
      <point x="1049.0" y="896.0"/>
      <point x="993.0" y="901.0"/>
      <point x="943.0" y="901.0" type="curve" smooth="yes"/>
      <point x="600.0" y="901.0"/>
      <point x="479.0" y="749.0"/>
      <point x="479.0" y="506.0" type="curve" smooth="yes"/>
      <point x="479.0" y="254.0"/>
      <point x="634.0" y="108.0"/>
    </contour>
    <contour>
      <point x="613.0" y="-393.0" type="line"/>
      <point x="683.0" y="-348.0"/>
      <point x="672.0" y="-298.0"/>
      <point x="644.0" y="-248.0" type="curve" smooth="yes"/>
      <point x="551.0" y="-86.0" type="line"/>
      <point x="465.0" y="-137.0" type="line"/>
      <point x="329.0" y="-238.0" type="line"/>
      <point x="374.0" y="-317.0" type="line"/>
    </contour>
    <contour>
      <point x="477.0" y="-191.0" type="line"/>
      <point x="578.0" y="-132.0" type="line"/>
      <point x="401.0" y="172.0" type="line" smooth="yes"/>
      <point x="347.0" y="265.0"/>
      <point x="271.0" y="364.0"/>
      <point x="107.0" y="269.0" type="curve" smooth="yes"/>
      <point x="60.0" y="242.0"/>
      <point x="22.0" y="208.0"/>
      <point x="-2.0" y="176.0" type="curve"/>
      <point x="64.0" y="101.0" type="line"/>
      <point x="83.0" y="120.0"/>
      <point x="112.0" y="148.0"/>
      <point x="148.0" y="170.0" type="curve" smooth="yes"/>
      <point x="212.0" y="208.0"/>
      <point x="250.0" y="201.0"/>
      <point x="298.0" y="117.0" type="curve" smooth="yes"/>
    </contour>
    <contour>
      <point x="510.0" y="-246.0" type="line"/>
      <point x="1202.0" y="169.0" type="line"/>
      <point x="1109.0" y="217.0" type="line"/>
      <point x="455.0" y="-144.0" type="line"/>
    </contour>
    <contour>
      <point x="1343.0" y="-106.0" type="line"/>
      <point x="1444.0" y="-44.0" type="line"/>
      <point x="1245.0" y="247.0" type="line"/>
      <point x="1169.0" y="212.0" type="line"/>
    </contour>
    <contour>
      <point x="-12.0" y="1143.0" type="line"/>
      <point x="1443.0" y="1143.0" type="line"/>
      <point x="1443.0" y="1247.0" type="line"/>
      <point x="-12.0" y="1247.0" type="line"/>
    </contour>
  </outline>
</glyph>
<glyph name="d_d_ya-deva" format="2">
  <advance width="2099.0"/>
  <anchor x="1801.0" y="0.0" name="bottom"/>
  <anchor x="1804.0" y="1248.0" name="candra"/>
  <anchor x="1801.0" y="1288.0" name="top"/>
  <outline>
    <contour>
      <point x="923.0" y="1143.0" type="line"/>
      <point x="2112.0" y="1143.0" type="line"/>
      <point x="2112.0" y="1247.0" type="line"/>
      <point x="923.0" y="1247.0" type="line"/>
    </contour>
    <contour>
      <point x="1428.0" y="159.0" type="curve" smooth="yes"/>
      <point x="1555.0" y="159.0"/>
      <point x="1668.0" y="206.0"/>
      <point x="1758.0" y="300.0" type="curve"/>
      <point x="1762.0" y="461.0" type="line"/>
      <point x="1680.0" y="324.0"/>
      <point x="1533.0" y="274.0"/>
      <point x="1421.0" y="274.0" type="curve" smooth="yes"/>
      <point x="1273.0" y="274.0"/>
      <point x="1161.0" y="331.0"/>
      <point x="1125.0" y="479.0" type="curve"/>
      <point x="1103.0" y="431.0" type="line"/>
      <point x="1201.0" y="453.0"/>
      <point x="1382.0" y="530.0"/>
      <point x="1382.0" y="711.0" type="curve" smooth="yes"/>
      <point x="1382.0" y="862.0"/>
      <point x="1270.0" y="910.0"/>
      <point x="1091.0" y="910.0" type="curve" smooth="yes"/>
      <point x="662.0" y="910.0" type="line"/>
      <point x="677.0" y="806.0" type="line"/>
      <point x="1109.0" y="806.0" type="line" smooth="yes"/>
      <point x="1206.0" y="806.0"/>
      <point x="1263.0" y="778.0"/>
      <point x="1263.0" y="704.0" type="curve" smooth="yes"/>
      <point x="1263.0" y="635.0"/>
      <point x="1189.0" y="565.0"/>
      <point x="1001.0" y="513.0" type="curve"/>
      <point x="1060.0" y="268.0"/>
      <point x="1208.0" y="159.0"/>
    </contour>
    <contour>
      <point x="1738.0" y="0.0" type="line"/>
      <point x="1864.0" y="0.0" type="line"/>
      <point x="1864.0" y="1170.0" type="line"/>
      <point x="1738.0" y="1170.0" type="line"/>
    </contour>
    <component base="d_da-deva"/>
  </outline>
</glyph>
<glyph name="d_dh_ya-deva" format="2">
  <advance width="2309.0"/>
  <anchor x="2033.0" y="28.0" name="bottom"/>
  <anchor x="2038.0" y="1247.0" name="candra"/>
  <anchor x="2033.0" y="1288.0" name="top"/>
  <outline>
    <contour>
      <point x="1661.0" y="109.0" type="curve" smooth="yes"/>
      <point x="1788.0" y="109.0"/>
      <point x="1900.0" y="156.0"/>
      <point x="1991.0" y="250.0" type="curve"/>
      <point x="1995.0" y="411.0" type="line"/>
      <point x="1913.0" y="274.0"/>
      <point x="1765.0" y="224.0"/>
      <point x="1653.0" y="224.0" type="curve" smooth="yes"/>
      <point x="1506.0" y="224.0"/>
      <point x="1394.0" y="312.0"/>
      <point x="1357.0" y="480.0" type="curve"/>
      <point x="1336.0" y="432.0" type="line"/>
      <point x="1433.0" y="454.0"/>
      <point x="1614.0" y="529.0"/>
      <point x="1614.0" y="710.0" type="curve" smooth="yes"/>
      <point x="1614.0" y="841.0"/>
      <point x="1517.0" y="894.0"/>
      <point x="1339.0" y="894.0" type="curve" smooth="yes"/>
      <point x="953.0" y="893.0" type="line"/>
      <point x="938.0" y="788.0" type="line"/>
      <point x="1357.0" y="788.0" type="line" smooth="yes"/>
      <point x="1454.0" y="788.0"/>
      <point x="1496.0" y="757.0"/>
      <point x="1496.0" y="705.0" type="curve" smooth="yes"/>
      <point x="1496.0" y="636.0"/>
      <point x="1422.0" y="566.0"/>
      <point x="1234.0" y="514.0" type="curve"/>
      <point x="1292.0" y="249.0"/>
      <point x="1440.0" y="109.0"/>
    </contour>
    <contour>
      <point x="2096.0" y="0.0" type="line"/>
      <point x="2096.0" y="1170.0" type="line"/>
      <point x="1970.0" y="1170.0" type="line"/>
      <point x="1970.0" y="0.0" type="line"/>
    </contour>
    <contour>
      <point x="-12.0" y="1143.0" type="line"/>
      <point x="2322.0" y="1143.0" type="line"/>
      <point x="2322.0" y="1247.0" type="line"/>
      <point x="-12.0" y="1247.0" type="line"/>
    </contour>
    <contour>
      <point x="795.0" y="97.0" type="curve" smooth="yes"/>
      <point x="909.0" y="97.0"/>
      <point x="1005.0" y="121.0"/>
      <point x="1080.0" y="172.0" type="curve" smooth="yes"/>
      <point x="1146.0" y="215.0"/>
      <point x="1175.0" y="272.0"/>
      <point x="1175.0" y="324.0" type="curve" smooth="yes"/>
      <point x="1175.0" y="399.0"/>
      <point x="1107.0" y="464.0"/>
      <point x="1002.0" y="496.0" type="curve"/>
      <point x="925.0" y="426.0" type="line"/>
      <point x="1021.0" y="239.0" type="line"/>
      <point x="1047.0" y="281.0" type="line"/>
      <point x="952.0" y="222.0"/>
      <point x="872.0" y="206.0"/>
      <point x="788.0" y="206.0" type="curve" smooth="yes"/>
      <point x="606.0" y="206.0"/>
      <point x="481.0" y="281.0"/>
      <point x="481.0" y="497.0" type="curve" smooth="yes"/>
      <point x="481.0" y="706.0"/>
      <point x="580.0" y="788.0"/>
      <point x="820.0" y="788.0" type="curve"/>
      <point x="1044.0" y="788.0" type="line"/>
      <point x="1044.0" y="1178.0" type="line"/>
      <point x="917.0" y="1178.0" type="line"/>
      <point x="917.0" y="865.0" type="line"/>
      <point x="976.0" y="885.0" type="line"/>
      <point x="918.0" y="896.0"/>
      <point x="862.0" y="901.0"/>
      <point x="812.0" y="901.0" type="curve" smooth="yes"/>
      <point x="469.0" y="901.0"/>
      <point x="348.0" y="749.0"/>
      <point x="348.0" y="506.0" type="curve" smooth="yes"/>
      <point x="348.0" y="260.0"/>
      <point x="503.0" y="97.0"/>
    </contour>
    <contour>
      <point x="298.0" y="354.0" type="curve"/>
      <point x="263.0" y="437.0" type="line"/>
      <point x="154.0" y="400.0"/>
      <point x="77.0" y="315.0"/>
      <point x="75.0" y="199.0" type="curve" smooth="yes"/>
      <point x="72.0" y="68.0"/>
      <point x="155.0" y="-20.0"/>
      <point x="303.0" y="-49.0" type="curve" smooth="yes"/>
      <point x="348.0" y="-58.0"/>
      <point x="399.0" y="-60.0"/>
      <point x="456.0" y="-58.0" type="curve"/>
      <point x="496.0" y="23.0" type="line"/>
      <point x="432.0" y="25.0"/>
      <point x="373.0" y="31.0"/>
      <point x="326.0" y="45.0" type="curve" smooth="yes"/>
      <point x="247.0" y="70.0"/>
      <point x="191.0" y="119.0"/>
      <point x="190.0" y="196.0" type="curve" smooth="yes"/>
      <point x="188.0" y="278.0"/>
      <point x="234.0" y="321.0"/>
    </contour>
    <contour>
      <point x="687.0" y="-377.0" type="curve" smooth="yes"/>
      <point x="994.0" y="-377.0"/>
      <point x="1108.0" y="-44.0"/>
      <point x="1107.0" y="206.0" type="curve"/>
      <point x="1027.0" y="252.0" type="line"/>
      <point x="998.0" y="-17.0"/>
      <point x="901.0" y="-271.0"/>
      <point x="680.0" y="-271.0" type="curve" smooth="yes"/>
      <point x="590.0" y="-271.0"/>
      <point x="526.0" y="-215.0"/>
      <point x="526.0" y="-125.0" type="curve" smooth="yes"/>
      <point x="526.0" y="10.0"/>
      <point x="650.0" y="70.0"/>
      <point x="734.0" y="120.0" type="curve"/>
      <point x="682.0" y="198.0" type="line"/>
      <point x="614.0" y="160.0"/>
      <point x="403.0" y="77.0"/>
      <point x="403.0" y="-122.0" type="curve" smooth="yes"/>
      <point x="403.0" y="-276.0"/>
      <point x="518.0" y="-377.0"/>
    </contour>
    <contour>
      <point x="1217.0" y="-106.0" type="line"/>
      <point x="1313.0" y="-44.0" type="line"/>
      <point x="1114.0" y="247.0" type="line"/>
      <point x="1043.0" y="212.0" type="line"/>
    </contour>
  </outline>
</glyph>
<glyph name="d_ma-deva" format="2">
  <advance width="1522.0"/>
  <anchor x="1242.0" y="0.0" name="bottom"/>
  <anchor x="920.0" y="1248.0" name="candra"/>
  <anchor x="1245.0" y="1247.0" name="top"/>
  <outline>
    <contour>
      <point x="810.0" y="324.0" type="line"/>
      <point x="808.0" y="398.0" type="line" smooth="yes"/>
      <point x="802.0" y="610.0"/>
      <point x="666.0" y="654.0"/>
      <point x="550.0" y="653.0" type="curve" smooth="yes"/>
      <point x="462.0" y="652.0"/>
      <point x="383.0" y="633.0"/>
      <point x="317.0" y="617.0" type="curve"/>
      <point x="287.0" y="657.0"/>
      <point x="268.0" y="708.0"/>
      <point x="268.0" y="759.0" type="curve" smooth="yes"/>
      <point x="268.0" y="832.0"/>
      <point x="292.0" y="880.0"/>
      <point x="428.0" y="880.0" type="curve" smooth="yes"/>
      <point x="772.0" y="880.0" type="line"/>
      <point x="758.0" y="992.0" type="line"/>
      <point x="387.0" y="991.0" type="line" smooth="yes"/>
      <point x="236.0" y="991.0"/>
      <point x="148.0" y="921.0"/>
      <point x="148.0" y="793.0" type="curve" smooth="yes"/>
      <point x="148.0" y="694.0"/>
      <point x="194.0" y="595.0"/>
      <point x="251.0" y="538.0" type="curve" smooth="yes"/>
      <point x="267.0" y="522.0"/>
      <point x="295.0" y="500.0"/>
      <point x="335.0" y="507.0" type="curve" smooth="yes"/>
      <point x="387.0" y="516.0"/>
      <point x="467.0" y="536.0"/>
      <point x="541.0" y="536.0" type="curve" smooth="yes"/>
      <point x="638.0" y="536.0"/>
      <point x="688.0" y="479.0"/>
      <point x="686.0" y="382.0" type="curve" smooth="yes"/>
      <point x="685.0" y="326.0" type="line"/>
    </contour>
    <contour>
      <point x="702.0" y="57.0" type="line"/>
      <point x="791.0" y="60.0"/>
      <point x="810.0" y="110.0"/>
      <point x="810.0" y="168.0" type="curve" smooth="yes"/>
      <point x="810.0" y="346.0" type="line"/>
      <point x="701.0" y="356.0" type="line"/>
      <point x="533.0" y="337.0" type="line"/>
      <point x="533.0" y="247.0" type="line"/>
    </contour>
    <contour>
      <point x="695.0" y="244.0" type="line"/>
      <point x="1269.0" y="244.0" type="line"/>
      <point x="1269.0" y="355.0" type="line"/>
      <point x="695.0" y="355.0" type="line"/>
    </contour>
    <contour>
      <point x="694.0" y="880.0" type="line"/>
      <point x="819.0" y="880.0" type="line"/>
      <point x="819.0" y="1174.0" type="line"/>
      <point x="694.0" y="1174.0" type="line"/>
    </contour>
    <contour>
      <point x="1172.0" y="0.0" type="line"/>
      <point x="1298.0" y="0.0" type="line"/>
      <point x="1298.0" y="1177.0" type="line"/>
      <point x="1172.0" y="1177.0" type="line"/>
    </contour>
    <contour>
      <point x="-12.0" y="1143.0" type="line"/>
      <point x="1535.0" y="1143.0" type="line"/>
      <point x="1535.0" y="1247.0" type="line"/>
      <point x="-12.0" y="1247.0" type="line"/>
    </contour>
  </outline>
</glyph>
<glyph name="d_v_ra-deva" format="2">
  <advance width="1115.0"/>
  <anchor x="709.0" y="1249.0" name="candra"/>
  <anchor x="709.0" y="1287.0" name="top"/>
  <outline>
    <contour>
      <point x="522.0" y="97.0" type="curve" smooth="yes"/>
      <point x="636.0" y="97.0"/>
      <point x="732.0" y="121.0"/>
      <point x="807.0" y="172.0" type="curve" smooth="yes"/>
      <point x="873.0" y="215.0"/>
      <point x="902.0" y="272.0"/>
      <point x="902.0" y="324.0" type="curve" smooth="yes"/>
      <point x="902.0" y="399.0"/>
      <point x="834.0" y="464.0"/>
      <point x="729.0" y="496.0" type="curve"/>
      <point x="652.0" y="426.0" type="line"/>
      <point x="748.0" y="239.0" type="line"/>
      <point x="774.0" y="281.0" type="line"/>
      <point x="679.0" y="222.0"/>
      <point x="599.0" y="206.0"/>
      <point x="515.0" y="206.0" type="curve" smooth="yes"/>
      <point x="333.0" y="206.0"/>
      <point x="208.0" y="281.0"/>
      <point x="208.0" y="497.0" type="curve" smooth="yes"/>
      <point x="208.0" y="706.0"/>
      <point x="307.0" y="788.0"/>
      <point x="547.0" y="788.0" type="curve" smooth="yes"/>
      <point x="648.0" y="788.0"/>
      <point x="744.0" y="781.0"/>
      <point x="771.0" y="780.0" type="curve"/>
      <point x="771.0" y="1178.0" type="line"/>
      <point x="644.0" y="1178.0" type="line"/>
      <point x="644.0" y="865.0" type="line"/>
      <point x="703.0" y="885.0" type="line"/>
      <point x="645.0" y="896.0"/>
      <point x="589.0" y="901.0"/>
      <point x="539.0" y="901.0" type="curve" smooth="yes"/>
      <point x="196.0" y="901.0"/>
      <point x="75.0" y="749.0"/>
      <point x="75.0" y="506.0" type="curve" smooth="yes"/>
      <point x="75.0" y="260.0"/>
      <point x="230.0" y="97.0"/>
    </contour>
    <contour>
      <point x="397.0" y="-373.0" type="curve" smooth="yes"/>
      <point x="707.0" y="-373.0"/>
      <point x="816.0" y="-44.0"/>
      <point x="815.0" y="206.0" type="curve"/>
      <point x="734.0" y="251.0" type="line"/>
      <point x="705.0" y="-17.0"/>
      <point x="608.0" y="-265.0"/>
      <point x="390.0" y="-265.0" type="curve" smooth="yes"/>
      <point x="299.0" y="-265.0"/>
      <point x="235.0" y="-210.0"/>
      <point x="235.0" y="-125.0" type="curve" smooth="yes"/>
      <point x="235.0" y="6.0"/>
      <point x="358.0" y="66.0"/>
      <point x="442.0" y="116.0" type="curve"/>
      <point x="390.0" y="195.0" type="line"/>
      <point x="322.0" y="157.0"/>
      <point x="111.0" y="73.0"/>
      <point x="111.0" y="-122.0" type="curve" smooth="yes"/>
      <point x="111.0" y="-275.0"/>
      <point x="226.0" y="-373.0"/>
    </contour>
    <contour>
      <point x="1044.0" y="-289.0" type="line"/>
      <point x="1140.0" y="-227.0" type="line"/>
      <point x="841.0" y="247.0" type="line"/>
      <point x="770.0" y="212.0" type="line"/>
    </contour>
    <contour>
      <point x="-12.0" y="1143.0" type="line"/>
      <point x="1129.0" y="1143.0" type="line"/>
      <point x="1129.0" y="1247.0" type="line"/>
      <point x="-12.0" y="1247.0" type="line"/>
    </contour>
    <contour>
      <point x="762.0" y="-528.0" type="line"/>
      <point x="988.0" y="-102.0" type="line"/>
      <point x="919.0" y="-37.0" type="line"/>
      <point x="658.0" y="-482.0" type="line"/>
    </contour>
  </outline>
</glyph>
<glyph name="d_v_ya-deva" format="2">
  <advance width="2069.0"/>
  <anchor x="1793.0" y="0.0" name="bottom"/>
  <anchor x="1758.0" y="1247.0" name="candra"/>
  <anchor x="1793.0" y="1247.0" name="top"/>
  <outline>
    <contour>
      <point x="1421.0" y="109.0" type="curve" smooth="yes"/>
      <point x="1548.0" y="109.0"/>
      <point x="1660.0" y="156.0"/>
      <point x="1751.0" y="250.0" type="curve"/>
      <point x="1755.0" y="411.0" type="line"/>
      <point x="1673.0" y="274.0"/>
      <point x="1525.0" y="224.0"/>
      <point x="1413.0" y="224.0" type="curve" smooth="yes"/>
      <point x="1266.0" y="224.0"/>
      <point x="1154.0" y="312.0"/>
      <point x="1117.0" y="480.0" type="curve"/>
      <point x="1096.0" y="432.0" type="line"/>
      <point x="1193.0" y="454.0"/>
      <point x="1374.0" y="529.0"/>
      <point x="1374.0" y="710.0" type="curve" smooth="yes"/>
      <point x="1374.0" y="841.0"/>
      <point x="1277.0" y="894.0"/>
      <point x="1099.0" y="894.0" type="curve" smooth="yes"/>
      <point x="713.0" y="893.0" type="line"/>
      <point x="698.0" y="788.0" type="line"/>
      <point x="1117.0" y="788.0" type="line" smooth="yes"/>
      <point x="1214.0" y="788.0"/>
      <point x="1256.0" y="757.0"/>
      <point x="1256.0" y="705.0" type="curve" smooth="yes"/>
      <point x="1256.0" y="636.0"/>
      <point x="1182.0" y="566.0"/>
      <point x="994.0" y="514.0" type="curve"/>
      <point x="1052.0" y="249.0"/>
      <point x="1200.0" y="109.0"/>
    </contour>
    <contour>
      <point x="1856.0" y="0.0" type="line"/>
      <point x="1856.0" y="1170.0" type="line"/>
      <point x="1730.0" y="1170.0" type="line"/>
      <point x="1730.0" y="0.0" type="line"/>
    </contour>
    <contour>
      <point x="848.0" y="1143.0" type="line"/>
      <point x="2082.0" y="1143.0" type="line"/>
      <point x="2082.0" y="1247.0" type="line"/>
      <point x="848.0" y="1247.0" type="line"/>
    </contour>
    <contour>
      <point x="522.0" y="97.0" type="curve" smooth="yes"/>
      <point x="636.0" y="97.0"/>
      <point x="732.0" y="121.0"/>
      <point x="807.0" y="172.0" type="curve" smooth="yes"/>
      <point x="873.0" y="215.0"/>
      <point x="902.0" y="272.0"/>
      <point x="902.0" y="324.0" type="curve" smooth="yes"/>
      <point x="902.0" y="399.0"/>
      <point x="834.0" y="464.0"/>
      <point x="729.0" y="496.0" type="curve"/>
      <point x="652.0" y="426.0" type="line"/>
      <point x="748.0" y="239.0" type="line"/>
      <point x="774.0" y="281.0" type="line"/>
      <point x="679.0" y="222.0"/>
      <point x="599.0" y="206.0"/>
      <point x="515.0" y="206.0" type="curve" smooth="yes"/>
      <point x="333.0" y="206.0"/>
      <point x="208.0" y="281.0"/>
      <point x="208.0" y="497.0" type="curve" smooth="yes"/>
      <point x="208.0" y="706.0"/>
      <point x="307.0" y="788.0"/>
      <point x="547.0" y="788.0" type="curve"/>
      <point x="771.0" y="788.0" type="line"/>
      <point x="771.0" y="1178.0" type="line"/>
      <point x="644.0" y="1178.0" type="line"/>
      <point x="644.0" y="865.0" type="line"/>
      <point x="703.0" y="885.0" type="line"/>
      <point x="645.0" y="896.0"/>
      <point x="589.0" y="901.0"/>
      <point x="539.0" y="901.0" type="curve" smooth="yes"/>
      <point x="196.0" y="901.0"/>
      <point x="75.0" y="749.0"/>
      <point x="75.0" y="506.0" type="curve" smooth="yes"/>
      <point x="75.0" y="260.0"/>
      <point x="230.0" y="97.0"/>
    </contour>
    <contour>
      <point x="417.0" y="-373.0" type="curve" smooth="yes"/>
      <point x="727.0" y="-373.0"/>
      <point x="836.0" y="-44.0"/>
      <point x="835.0" y="206.0" type="curve"/>
      <point x="754.0" y="251.0" type="line"/>
      <point x="725.0" y="-17.0"/>
      <point x="628.0" y="-265.0"/>
      <point x="410.0" y="-265.0" type="curve" smooth="yes"/>
      <point x="319.0" y="-265.0"/>
      <point x="255.0" y="-210.0"/>
      <point x="255.0" y="-125.0" type="curve" smooth="yes"/>
      <point x="255.0" y="6.0"/>
      <point x="378.0" y="66.0"/>
      <point x="462.0" y="116.0" type="curve"/>
      <point x="410.0" y="195.0" type="line"/>
      <point x="342.0" y="157.0"/>
      <point x="131.0" y="73.0"/>
      <point x="131.0" y="-122.0" type="curve" smooth="yes"/>
      <point x="131.0" y="-275.0"/>
      <point x="246.0" y="-373.0"/>
    </contour>
    <contour>
      <point x="944.0" y="-106.0" type="line"/>
      <point x="1040.0" y="-44.0" type="line"/>
      <point x="841.0" y="247.0" type="line"/>
      <point x="770.0" y="212.0" type="line"/>
    </contour>
    <contour>
      <point x="-12.0" y="1143.0" type="line"/>
      <point x="1019.0" y="1143.0" type="line"/>
      <point x="1019.0" y="1247.0" type="line"/>
      <point x="-12.0" y="1247.0" type="line"/>
    </contour>
  </outline>
</glyph>
<glyph name="dd_dd_ya-deva" format="2">
  <advance width="2177.0"/>
  <anchor x="1879.0" y="0.0" name="bottom"/>
  <anchor x="1882.0" y="1248.0" name="candra"/>
  <anchor x="1879.0" y="1288.0" name="top"/>
  <anchor x="576.0" y="-693.0" name="nukta"/>
  <outline>
    <contour>
      <point x="1001.0" y="1143.0" type="line"/>
      <point x="2190.0" y="1143.0" type="line"/>
      <point x="2190.0" y="1247.0" type="line"/>
      <point x="1001.0" y="1247.0" type="line"/>
    </contour>
    <contour>
      <point x="1506.0" y="159.0" type="curve" smooth="yes"/>
      <point x="1633.0" y="159.0"/>
      <point x="1746.0" y="206.0"/>
      <point x="1836.0" y="300.0" type="curve"/>
      <point x="1840.0" y="461.0" type="line"/>
      <point x="1758.0" y="324.0"/>
      <point x="1611.0" y="274.0"/>
      <point x="1499.0" y="274.0" type="curve" smooth="yes"/>
      <point x="1351.0" y="274.0"/>
      <point x="1239.0" y="362.0"/>
      <point x="1203.0" y="530.0" type="curve"/>
      <point x="1181.0" y="482.0" type="line"/>
      <point x="1279.0" y="504.0"/>
      <point x="1460.0" y="581.0"/>
      <point x="1460.0" y="782.0" type="curve" smooth="yes"/>
      <point x="1460.0" y="933.0"/>
      <point x="1348.0" y="986.0"/>
      <point x="1169.0" y="986.0" type="curve" smooth="yes"/>
      <point x="780.0" y="986.0" type="line"/>
      <point x="795.0" y="882.0" type="line"/>
      <point x="1187.0" y="882.0" type="line" smooth="yes"/>
      <point x="1284.0" y="882.0"/>
      <point x="1341.0" y="849.0"/>
      <point x="1341.0" y="775.0" type="curve" smooth="yes"/>
      <point x="1341.0" y="686.0"/>
      <point x="1267.0" y="616.0"/>
      <point x="1079.0" y="564.0" type="curve"/>
      <point x="1138.0" y="299.0"/>
      <point x="1286.0" y="159.0"/>
    </contour>
    <contour>
      <point x="1816.0" y="0.0" type="line"/>
      <point x="1942.0" y="0.0" type="line"/>
      <point x="1942.0" y="1170.0" type="line"/>
      <point x="1816.0" y="1170.0" type="line"/>
    </contour>
    <component base="dd_dda-deva"/>
  </outline>
</glyph>
<glyph name="dh_na-deva" format="2">
  <advance width="1239.0"/>
  <anchor x="962.0" y="0.0" name="bottom"/>
  <anchor x="874.0" y="1247.0" name="candra"/>
  <anchor x="304.0" y="44.0" name="nukta"/>
  <anchor x="962.0" y="1247.0" name="top"/>
  <outline>
    <contour>
      <point x="589.0" y="-93.0" type="line"/>
      <point x="611.0" y="-73.0"/>
      <point x="619.0" y="-54.0"/>
      <point x="620.0" y="-35.0" type="curve" smooth="yes"/>
      <point x="621.0" y="-15.0"/>
      <point x="613.0" y="5.0"/>
      <point x="600.0" y="24.0" type="curve" smooth="yes"/>
      <point x="531.0" y="122.0" type="line"/>
      <point x="513.0" y="68.0" type="line"/>
      <point x="922.0" y="385.0" type="line"/>
      <point x="877.0" y="469.0" type="line"/>
      <point x="322.0" y="75.0" type="line"/>
      <point x="378.0" y="-16.0" type="line"/>
    </contour>
    <component base="dha-deva" xOffset="-3.0"/>
  </outline>
</glyph>
<glyph name="dieresisbelowcomb.cap" format="2">
  <anchor x="270.0" y="0.0" name="_bottom"/>
  <anchor x="270.0" y="-403.0" name="bottom"/>
  <outline>
    <contour>
      <point x="440.0" y="-403.0" type="curve" smooth="yes"/>
      <point x="493.0" y="-403.0"/>
      <point x="530.0" y="-363.0"/>
      <point x="530.0" y="-313.0" type="curve" smooth="yes"/>
      <point x="530.0" y="-262.0"/>
      <point x="493.0" y="-224.0"/>
      <point x="440.0" y="-224.0" type="curve" smooth="yes"/>
      <point x="389.0" y="-224.0"/>
      <point x="350.0" y="-262.0"/>
      <point x="350.0" y="-313.0" type="curve" smooth="yes"/>
      <point x="350.0" y="-363.0"/>
      <point x="389.0" y="-403.0"/>
    </contour>
    <contour>
      <point x="100.0" y="-403.0" type="curve" smooth="yes"/>
      <point x="151.0" y="-403.0"/>
      <point x="190.0" y="-363.0"/>
      <point x="190.0" y="-313.0" type="curve" smooth="yes"/>
      <point x="190.0" y="-262.0"/>
      <point x="151.0" y="-224.0"/>
      <point x="100.0" y="-224.0" type="curve" smooth="yes"/>
      <point x="47.0" y="-224.0"/>
      <point x="10.0" y="-262.0"/>
      <point x="10.0" y="-313.0" type="curve" smooth="yes"/>
      <point x="10.0" y="-363.0"/>
      <point x="47.0" y="-403.0"/>
    </contour>
  </outline>
</glyph>
<glyph name="dotbelowcomb.cap" format="2">
  <anchor x="107.0" y="0.0" name="_bottom"/>
  <anchor x="107.0" y="-412.0" name="bottom"/>
  <outline>
    <contour>
      <point x="107.0" y="-412.0" type="curve" smooth="yes"/>
      <point x="163.0" y="-412.0"/>
      <point x="204.0" y="-372.0"/>
      <point x="204.0" y="-312.0" type="curve" smooth="yes"/>
      <point x="204.0" y="-255.0"/>
      <point x="163.0" y="-215.0"/>
      <point x="107.0" y="-215.0" type="curve" smooth="yes"/>
      <point x="51.0" y="-215.0"/>
      <point x="10.0" y="-255.0"/>
      <point x="10.0" y="-312.0" type="curve" smooth="yes"/>
      <point x="10.0" y="-372.0"/>
      <point x="51.0" y="-412.0"/>
    </contour>
  </outline>
</glyph>
<glyph name="eMatra_reph_candraBindu-deva" format="2">
  <advance width="539.0"/>
  <anchor x="246.0" y="1247.0" name="_top"/>
  <anchor x="180.0" y="1593.0" name="candra"/>
  <anchor x="176.0" y="1593.0" name="top"/>
  <outline>
    <contour>
      <point x="252.0" y="1220.0" type="curve"/>
      <point x="306.0" y="1242.0" type="line"/>
      <point x="283.0" y="1290.0"/>
      <point x="239.0" y="1382.0"/>
      <point x="239.0" y="1452.0" type="curve" smooth="yes"/>
      <point x="239.0" y="1551.0"/>
      <point x="309.0" y="1634.0"/>
      <point x="420.0" y="1634.0" type="curve" smooth="yes"/>
      <point x="500.0" y="1634.0"/>
      <point x="562.0" y="1611.0"/>
      <point x="609.0" y="1585.0" type="curve"/>
      <point x="642.0" y="1683.0" type="line"/>
      <point x="589.0" y="1720.0"/>
      <point x="503.0" y="1744.0"/>
      <point x="417.0" y="1744.0" type="curve" smooth="yes"/>
      <point x="254.0" y="1744.0"/>
      <point x="135.0" y="1622.0"/>
      <point x="135.0" y="1481.0" type="curve" smooth="yes"/>
      <point x="135.0" y="1403.0"/>
      <point x="165.0" y="1310.0"/>
    </contour>
    <contour>
      <point x="210.0" y="1206.0" type="line"/>
      <point x="301.0" y="1244.0" type="line"/>
      <point x="116.0" y="1704.0"/>
      <point x="31.0" y="1790.0"/>
      <point x="-244.0" y="1790.0" type="curve" smooth="yes"/>
      <point x="-295.0" y="1790.0"/>
      <point x="-334.0" y="1786.0"/>
      <point x="-390.0" y="1775.0" type="curve"/>
      <point x="-370.0" y="1667.0" type="line"/>
      <point x="-333.0" y="1674.0"/>
      <point x="-290.0" y="1678.0"/>
      <point x="-224.0" y="1678.0" type="curve" smooth="yes"/>
      <point x="-20.0" y="1678.0"/>
      <point x="47.0" y="1560.0"/>
      <point x="191.0" y="1247.0" type="curve" smooth="yes"/>
    </contour>
    <component base="candraBindu-deva" xScale="0.64684" yScale="0.64684" xOffset="302.0" yOffset="402.0"/>
  </outline>
</glyph>
<glyph name="eight.osf" format="2">
  <advance width="1049.0"/>
  <outline>
    <contour>
      <point x="523.0" y="-25.0" type="curve" smooth="yes"/>
      <point x="782.0" y="-25.0"/>
      <point x="935.0" y="136.0"/>
      <point x="935.0" y="329.0" type="curve" smooth="yes"/>
      <point x="935.0" y="505.0"/>
      <point x="821.0" y="612.0"/>
      <point x="707.0" y="679.0" type="curve"/>
      <point x="707.0" y="688.0" type="line"/>
      <point x="784.0" y="749.0"/>
      <point x="889.0" y="882.0"/>
      <point x="889.0" y="1021.0" type="curve" smooth="yes"/>
      <point x="889.0" y="1222.0"/>
      <point x="755.0" y="1370.0"/>
      <point x="530.0" y="1370.0" type="curve" smooth="yes"/>
      <point x="315.0" y="1370.0"/>
      <point x="167.0" y="1230.0"/>
      <point x="167.0" y="1034.0" type="curve" smooth="yes"/>
      <point x="167.0" y="896.0"/>
      <point x="252.0" y="791.0"/>
      <point x="348.0" y="725.0" type="curve"/>
      <point x="348.0" y="717.0" type="line"/>
      <point x="225.0" y="652.0"/>
      <point x="100.0" y="515.0"/>
      <point x="100.0" y="343.0" type="curve" smooth="yes"/>
      <point x="100.0" y="136.0"/>
      <point x="279.0" y="-25.0"/>
    </contour>
    <contour>
      <point x="525.0" y="80.0" type="curve" smooth="yes"/>
      <point x="353.0" y="80.0"/>
      <point x="226.0" y="202.0"/>
      <point x="226.0" y="354.0" type="curve" smooth="yes"/>
      <point x="226.0" y="483.0"/>
      <point x="308.0" y="600.0"/>
      <point x="424.0" y="673.0" type="curve"/>
      <point x="618.0" y="595.0"/>
      <point x="801.0" y="515.0"/>
      <point x="801.0" y="333.0" type="curve" smooth="yes"/>
      <point x="801.0" y="193.0"/>
      <point x="702.0" y="80.0"/>
    </contour>
    <contour>
      <point x="616.0" y="726.0" type="curve"/>
      <point x="445.0" y="789.0"/>
      <point x="296.0" y="866.0"/>
      <point x="296.0" y="1034.0" type="curve" smooth="yes"/>
      <point x="296.0" y="1167.0"/>
      <point x="385.0" y="1266.0"/>
      <point x="528.0" y="1266.0" type="curve" smooth="yes"/>
      <point x="682.0" y="1266.0"/>
      <point x="768.0" y="1152.0"/>
      <point x="768.0" y="1016.0" type="curve" smooth="yes"/>
      <point x="768.0" y="913.0"/>
      <point x="714.0" y="809.0"/>
    </contour>
  </outline>
</glyph>
<glyph name="eight.tf" format="2">
  <advance width="1003.0"/>
  <outline>
    <contour>
      <point x="506.0" y="-25.0" type="curve" smooth="yes"/>
      <point x="765.0" y="-25.0"/>
      <point x="918.0" y="136.0"/>
      <point x="918.0" y="329.0" type="curve" smooth="yes"/>
      <point x="918.0" y="505.0"/>
      <point x="805.0" y="612.0"/>
      <point x="690.0" y="679.0" type="curve"/>
      <point x="690.0" y="688.0" type="line"/>
      <point x="768.0" y="749.0"/>
      <point x="873.0" y="882.0"/>
      <point x="873.0" y="1021.0" type="curve" smooth="yes"/>
      <point x="873.0" y="1222.0"/>
      <point x="739.0" y="1370.0"/>
      <point x="513.0" y="1370.0" type="curve" smooth="yes"/>
      <point x="299.0" y="1370.0"/>
      <point x="151.0" y="1230.0"/>
      <point x="151.0" y="1034.0" type="curve" smooth="yes"/>
      <point x="151.0" y="896.0"/>
      <point x="235.0" y="791.0"/>
      <point x="332.0" y="725.0" type="curve"/>
      <point x="332.0" y="717.0" type="line"/>
      <point x="209.0" y="652.0"/>
      <point x="83.0" y="515.0"/>
      <point x="83.0" y="343.0" type="curve" smooth="yes"/>
      <point x="83.0" y="136.0"/>
      <point x="263.0" y="-25.0"/>
    </contour>
    <contour>
      <point x="509.0" y="80.0" type="curve" smooth="yes"/>
      <point x="337.0" y="80.0"/>
      <point x="210.0" y="202.0"/>
      <point x="210.0" y="354.0" type="curve" smooth="yes"/>
      <point x="210.0" y="483.0"/>
      <point x="291.0" y="600.0"/>
      <point x="408.0" y="673.0" type="curve"/>
      <point x="602.0" y="595.0"/>
      <point x="785.0" y="515.0"/>
      <point x="785.0" y="333.0" type="curve" smooth="yes"/>
      <point x="785.0" y="193.0"/>
      <point x="686.0" y="80.0"/>
    </contour>
    <contour>
      <point x="600.0" y="726.0" type="curve"/>
      <point x="429.0" y="789.0"/>
      <point x="280.0" y="866.0"/>
      <point x="280.0" y="1034.0" type="curve" smooth="yes"/>
      <point x="280.0" y="1167.0"/>
      <point x="368.0" y="1266.0"/>
      <point x="511.0" y="1266.0" type="curve" smooth="yes"/>
      <point x="665.0" y="1266.0"/>
      <point x="751.0" y="1152.0"/>
      <point x="751.0" y="1016.0" type="curve" smooth="yes"/>
      <point x="751.0" y="913.0"/>
      <point x="697.0" y="809.0"/>
    </contour>
  </outline>
</glyph>
<glyph name="five.lf" format="2">
  <advance width="1003.0"/>
  <outline>
    <contour>
      <point x="473.0" y="-25.0" type="curve" smooth="yes"/>
      <point x="707.0" y="-25.0"/>
      <point x="905.0" y="146.0"/>
      <point x="905.0" y="427.0" type="curve" smooth="yes"/>
      <point x="905.0" y="711.0"/>
      <point x="730.0" y="859.0"/>
      <point x="501.0" y="859.0" type="curve" smooth="yes"/>
      <point x="415.0" y="859.0"/>
      <point x="351.0" y="835.0"/>
      <point x="287.0" y="799.0" type="curve"/>
      <point x="325.0" y="1231.0" type="line"/>
      <point x="837.0" y="1231.0" type="line"/>
      <point x="837.0" y="1350.0" type="line"/>
      <point x="204.0" y="1350.0" type="line"/>
      <point x="160.0" y="718.0" type="line"/>
      <point x="239.0" y="668.0" type="line"/>
      <point x="317.0" y="720.0"/>
      <point x="376.0" y="751.0"/>
      <point x="470.0" y="751.0" type="curve" smooth="yes"/>
      <point x="649.0" y="751.0"/>
      <point x="766.0" y="616.0"/>
      <point x="766.0" y="423.0" type="curve" smooth="yes"/>
      <point x="766.0" y="211.0"/>
      <point x="629.0" y="90.0"/>
      <point x="463.0" y="90.0" type="curve" smooth="yes"/>
      <point x="299.0" y="90.0"/>
      <point x="226.0" y="162.0"/>
      <point x="148.0" y="235.0" type="curve"/>
      <point x="79.0" y="144.0" type="line"/>
      <point x="166.0" y="62.0"/>
      <point x="264.0" y="-25.0"/>
    </contour>
  </outline>
</glyph>
<glyph name="four.lf" format="2">
  <advance width="1043.0"/>
  <outline>
    <contour>
      <point x="662.0" y="0.0" type="line"/>
      <point x="791.0" y="0.0" type="line"/>
      <point x="791.0" y="373.0" type="line"/>
      <point x="975.0" y="373.0" type="line"/>
      <point x="975.0" y="485.0" type="line"/>
      <point x="791.0" y="485.0" type="line"/>
      <point x="791.0" y="1350.0" type="line"/>
      <point x="648.0" y="1350.0" type="line"/>
      <point x="69.0" y="460.0" type="line"/>
      <point x="69.0" y="373.0" type="line"/>
      <point x="662.0" y="373.0" type="line"/>
    </contour>
    <contour>
      <point x="218.0" y="485.0" type="line"/>
      <point x="555.0" y="1012.0" type="line"/>
      <point x="592.0" y="1074.0"/>
      <point x="629.0" y="1127.0"/>
      <point x="662.0" y="1188.0" type="curve"/>
      <point x="670.0" y="1188.0" type="line"/>
      <point x="666.0" y="1122.0"/>
      <point x="662.0" y="1012.0"/>
      <point x="662.0" y="946.0" type="curve" smooth="yes"/>
      <point x="662.0" y="485.0" type="line"/>
    </contour>
  </outline>
</glyph>
<glyph name="four.osf" format="2">
  <advance width="1047.0"/>
  <outline>
    <contour>
      <point x="644.0" y="-149.0" type="line"/>
      <point x="774.0" y="-149.0" type="line"/>
      <point x="774.0" y="199.0" type="line"/>
      <point x="959.0" y="199.0" type="line"/>
      <point x="959.0" y="311.0" type="line"/>
      <point x="774.0" y="311.0" type="line"/>
      <point x="774.0" y="1173.0" type="line"/>
      <point x="629.0" y="1173.0" type="line"/>
      <point x="50.0" y="287.0" type="line"/>
      <point x="50.0" y="199.0" type="line"/>
      <point x="644.0" y="199.0" type="line"/>
    </contour>
    <contour>
      <point x="201.0" y="311.0" type="line"/>
      <point x="539.0" y="811.0" type="line"/>
      <point x="576.0" y="874.0"/>
      <point x="612.0" y="942.0"/>
      <point x="645.0" y="1004.0" type="curve"/>
      <point x="653.0" y="1004.0" type="line"/>
      <point x="649.0" y="939.0"/>
      <point x="644.0" y="836.0"/>
      <point x="644.0" y="769.0" type="curve" smooth="yes"/>
      <point x="644.0" y="311.0" type="line"/>
    </contour>
  </outline>
</glyph>
<glyph name="four.tf" format="2">
  <advance width="1003.0"/>
  <outline>
    <contour>
      <point x="628.0" y="-149.0" type="line"/>
      <point x="758.0" y="-149.0" type="line"/>
      <point x="758.0" y="199.0" type="line"/>
      <point x="943.0" y="199.0" type="line"/>
      <point x="943.0" y="311.0" type="line"/>
      <point x="758.0" y="311.0" type="line"/>
      <point x="758.0" y="1173.0" type="line"/>
      <point x="613.0" y="1173.0" type="line"/>
      <point x="34.0" y="287.0" type="line"/>
      <point x="34.0" y="199.0" type="line"/>
      <point x="628.0" y="199.0" type="line"/>
    </contour>
    <contour>
      <point x="184.0" y="311.0" type="line"/>
      <point x="522.0" y="811.0" type="line"/>
      <point x="559.0" y="874.0"/>
      <point x="596.0" y="942.0"/>
      <point x="629.0" y="1004.0" type="curve"/>
      <point x="637.0" y="1004.0" type="line"/>
      <point x="633.0" y="939.0"/>
      <point x="628.0" y="836.0"/>
      <point x="628.0" y="769.0" type="curve" smooth="yes"/>
      <point x="628.0" y="311.0" type="line"/>
    </contour>
  </outline>
</glyph>
<glyph name="g_na-deva" format="2">
  <advance width="1154.0"/>
  <anchor x="877.0" y="0.0" name="bottom"/>
  <anchor x="775.0" y="1247.0" name="candra"/>
  <anchor x="286.0" y="94.0" name="nukta"/>
  <anchor x="878.0" y="1247.0" name="top"/>
  <outline>
    <contour>
      <point x="492.0" y="10.0" type="line"/>
      <point x="514.0" y="31.0"/>
      <point x="522.0" y="50.0"/>
      <point x="522.0" y="69.0" type="curve" smooth="yes"/>
      <point x="522.0" y="89.0"/>
      <point x="514.0" y="109.0"/>
      <point x="500.0" y="128.0" type="curve" smooth="yes"/>
      <point x="431.0" y="225.0" type="line"/>
      <point x="414.0" y="171.0" type="line"/>
      <point x="871.0" y="485.0" type="line"/>
      <point x="821.0" y="576.0" type="line"/>
      <point x="222.0" y="173.0" type="line"/>
      <point x="280.0" y="83.0" type="line"/>
    </contour>
    <component base="g-deva"/>
    <component base="aaMatra-deva" xOffset="600.0"/>
  </outline>
</glyph>
<glyph name="g_ra-deva" format="2">
  <advance width="604.0"/>
  <anchor x="286.0" y="94.0" name="nukta"/>
  <outline>
    <contour>
      <point x="279.0" y="-18.0" type="line"/>
      <point x="836.0" y="421.0" type="line"/>
      <point x="793.0" y="512.0" type="line"/>
      <point x="201.0" y="74.0" type="line"/>
    </contour>
    <component base="g-deva"/>
  </outline>
</glyph>
<glyph name="gh_na-deva" format="2">
  <advance width="1190.0"/>
  <anchor x="912.0" y="0.0" name="bottom"/>
  <anchor x="856.0" y="1247.0" name="candra"/>
  <anchor x="299.0" y="44.0" name="nukta"/>
  <anchor x="915.0" y="1247.0" name="top"/>
  <outline>
    <contour>
      <point x="544.0" y="-121.0" type="line"/>
      <point x="566.0" y="-101.0"/>
      <point x="574.0" y="-82.0"/>
      <point x="575.0" y="-63.0" type="curve" smooth="yes"/>
      <point x="576.0" y="-43.0"/>
      <point x="568.0" y="-23.0"/>
      <point x="555.0" y="-4.0" type="curve" smooth="yes"/>
      <point x="486.0" y="94.0" type="line"/>
      <point x="468.0" y="40.0" type="line"/>
      <point x="877.0" y="357.0" type="line"/>
      <point x="832.0" y="441.0" type="line"/>
      <point x="277.0" y="47.0" type="line"/>
      <point x="333.0" y="-44.0" type="line"/>
    </contour>
    <component base="gha-deva" xOffset="2.0"/>
  </outline>
</glyph>
<glyph name="ghh_ra-deva" format="2">
  <advance width="1137.0"/>
  <anchor x="860.0" y="28.0" name="bottom"/>
  <anchor x="608.0" y="1248.0" name="candra"/>
  <anchor x="309.0" y="147.0" name="nukta"/>
  <anchor x="861.0" y="1288.0" name="top"/>
  <outline>
    <contour>
      <point x="342.0" y="-35.0" type="line"/>
      <point x="850.0" y="334.0" type="line"/>
      <point x="817.0" y="403.0" type="line"/>
      <point x="269.0" y="62.0" type="line"/>
    </contour>
    <component base="ga-deva"/>
    <component base="nukta-deva" xOffset="326.0" yOffset="-15.0"/>
  </outline>
</glyph>
<glyph name="horncomb.cap" format="2">
  <anchor x="-10.0" y="1346.0" name="_topright"/>
  <anchor x="326.0" y="1243.0" name="topright"/>
  <outline>
    <contour>
      <point x="24.0" y="895.0" type="line"/>
      <point x="186.0" y="913.0"/>
      <point x="306.0" y="977.0"/>
      <point x="306.0" y="1117.0" type="curve" smooth="yes"/>
      <point x="306.0" y="1165.0"/>
      <point x="288.0" y="1206.0"/>
      <point x="262.0" y="1243.0" type="curve"/>
      <point x="161.0" y="1191.0" type="line"/>
      <point x="178.0" y="1164.0"/>
      <point x="190.0" y="1136.0"/>
      <point x="190.0" y="1108.0" type="curve" smooth="yes"/>
      <point x="190.0" y="1026.0"/>
      <point x="131.0" y="986.0"/>
      <point x="10.0" y="970.0" type="curve"/>
    </contour>
  </outline>
</glyph>
<glyph name="j_ny-deva" format="2">
  <advance width="827.0"/>
  <outline>
    <contour>
      <point x="491.0" y="-19.0" type="curve"/>
      <point x="703.0" y="-19.0"/>
      <point x="875.0" y="80.0"/>
      <point x="875.0" y="301.0" type="curve" smooth="yes"/>
      <point x="875.0" y="510.0"/>
      <point x="738.0" y="552.0"/>
      <point x="596.0" y="552.0" type="curve" smooth="yes"/>
      <point x="484.0" y="552.0"/>
      <point x="375.0" y="531.0"/>
      <point x="315.0" y="514.0" type="curve"/>
      <point x="344.0" y="498.0" type="line"/>
      <point x="306.0" y="548.0"/>
      <point x="286.0" y="607.0"/>
      <point x="286.0" y="666.0" type="curve" smooth="yes"/>
      <point x="286.0" y="752.0"/>
      <point x="326.0" y="789.0"/>
      <point x="438.0" y="789.0" type="curve" smooth="yes"/>
      <point x="1152.0" y="789.0" type="line"/>
      <point x="1145.0" y="901.0" type="line"/>
      <point x="406.0" y="901.0" type="line" smooth="yes"/>
      <point x="252.0" y="901.0"/>
      <point x="169.0" y="830.0"/>
      <point x="169.0" y="700.0" type="curve" smooth="yes"/>
      <point x="169.0" y="596.0"/>
      <point x="216.0" y="489.0"/>
      <point x="271.0" y="436.0" type="curve" smooth="yes"/>
      <point x="289.0" y="419.0"/>
      <point x="315.0" y="401.0"/>
      <point x="350.0" y="407.0" type="curve" smooth="yes"/>
      <point x="402.0" y="416.0"/>
      <point x="500.0" y="437.0"/>
      <point x="587.0" y="437.0" type="curve" smooth="yes"/>
      <point x="719.0" y="437.0"/>
      <point x="758.0" y="379.0"/>
      <point x="755.0" y="282.0" type="curve" smooth="yes"/>
      <point x="751.0" y="164.0"/>
      <point x="668.0" y="92.0"/>
      <point x="483.0" y="92.0" type="curve" smooth="yes"/>
      <point x="390.0" y="92.0"/>
      <point x="304.0" y="108.0"/>
      <point x="219.0" y="154.0" type="curve"/>
      <point x="287.0" y="97.0" type="line"/>
      <point x="201.0" y="280.0" type="line"/>
      <point x="82.0" y="247.0" type="line"/>
      <point x="79.0" y="228.0"/>
      <point x="77.0" y="206.0"/>
      <point x="77.0" y="193.0" type="curve" smooth="yes"/>
      <point x="77.0" y="85.0"/>
      <point x="165.0" y="37.0"/>
      <point x="273.0" y="2.0" type="curve"/>
      <point x="273.0" y="29.0" type="line"/>
      <point x="337.0" y="-5.0"/>
      <point x="412.0" y="-19.0"/>
    </contour>
    <contour>
      <point x="410.0" y="-319.0" type="line"/>
      <point x="514.0" y="-257.0" type="line"/>
      <point x="267.0" y="102.0" type="line"/>
      <point x="193.0" y="86.0" type="line"/>
    </contour>
    <contour>
      <point x="-20.0" y="1143.0" type="line"/>
      <point x="957.0" y="1143.0" type="line"/>
      <point x="957.0" y="1247.0" type="line"/>
      <point x="-20.0" y="1247.0" type="line"/>
    </contour>
  </outline>
</glyph>
<glyph name="jh_ra-deva" format="2">
  <advance width="1047.0"/>
  <outline>
    <contour>
      <point x="517.0" y="61.0" type="curve"/>
      <point x="728.0" y="61.0"/>
      <point x="912.0" y="160.0"/>
      <point x="912.0" y="381.0" type="curve" smooth="yes"/>
      <point x="912.0" y="590.0"/>
      <point x="769.0" y="633.0"/>
      <point x="623.0" y="632.0" type="curve" smooth="yes"/>
      <point x="505.0" y="631.0"/>
      <point x="315.0" y="611.0"/>
      <point x="252.0" y="594.0" type="curve"/>
      <point x="283.0" y="578.0" type="line"/>
      <point x="240.0" y="628.0"/>
      <point x="219.0" y="677.0"/>
      <point x="219.0" y="736.0" type="curve" smooth="yes"/>
      <point x="219.0" y="812.0"/>
      <point x="247.0" y="859.0"/>
      <point x="380.0" y="859.0" type="curve" smooth="yes"/>
      <point x="748.0" y="859.0" type="line"/>
      <point x="734.0" y="971.0" type="line"/>
      <point x="347.0" y="971.0" type="line" smooth="yes"/>
      <point x="188.0" y="971.0"/>
      <point x="102.0" y="900.0"/>
      <point x="102.0" y="770.0" type="curve" smooth="yes"/>
      <point x="102.0" y="665.0"/>
      <point x="150.0" y="570.0"/>
      <point x="207.0" y="516.0" type="curve" smooth="yes"/>
      <point x="226.0" y="498.0"/>
      <point x="252.0" y="481.0"/>
      <point x="290.0" y="487.0" type="curve" smooth="yes"/>
      <point x="344.0" y="496.0"/>
      <point x="520.0" y="517.0"/>
      <point x="614.0" y="517.0" type="curve" smooth="yes"/>
      <point x="748.0" y="517.0"/>
      <point x="796.0" y="462.0"/>
      <point x="793.0" y="362.0" type="curve" smooth="yes"/>
      <point x="790.0" y="248.0"/>
      <point x="700.0" y="172.0"/>
      <point x="509.0" y="172.0" type="curve" smooth="yes"/>
      <point x="408.0" y="172.0"/>
      <point x="318.0" y="188.0"/>
      <point x="232.0" y="234.0" type="curve"/>
      <point x="299.0" y="177.0" type="line"/>
      <point x="209.0" y="360.0" type="line"/>
      <point x="89.0" y="327.0" type="line"/>
      <point x="86.0" y="308.0"/>
      <point x="84.0" y="288.0"/>
      <point x="84.0" y="273.0" type="curve" smooth="yes"/>
      <point x="84.0" y="163.0"/>
      <point x="178.0" y="116.0"/>
      <point x="286.0" y="82.0" type="curve"/>
      <point x="285.0" y="109.0" type="line"/>
      <point x="352.0" y="75.0"/>
      <point x="434.0" y="61.0"/>
    </contour>
    <contour>
      <point x="433.0" y="-239.0" type="line"/>
      <point x="537.0" y="-177.0" type="line"/>
      <point x="280.0" y="182.0" type="line"/>
      <point x="206.0" y="166.0" type="line"/>
    </contour>
    <contour>
      <point x="889.0" y="-48.0" type="line"/>
      <point x="1321.0" y="327.0" type="line"/>
      <point x="1272.0" y="413.0" type="line"/>
      <point x="811.0" y="42.0" type="line"/>
    </contour>
    <contour>
      <point x="844.0" y="430.0" type="line"/>
      <point x="950.0" y="417.0"/>
      <point x="1157.0" y="461.0"/>
      <point x="1230.0" y="523.0" type="curve"/>
      <point x="1216.0" y="643.0" type="line"/>
      <point x="1091.0" y="552.0"/>
      <point x="916.0" y="518.0"/>
      <point x="798.0" y="528.0" type="curve"/>
    </contour>
    <contour>
      <point x="670.0" y="859.0" type="line"/>
      <point x="795.0" y="859.0" type="line"/>
      <point x="795.0" y="1195.0" type="line"/>
      <point x="670.0" y="1195.0" type="line"/>
    </contour>
    <contour>
      <point x="-12.0" y="1143.0" type="line"/>
      <point x="1061.0" y="1143.0" type="line"/>
      <point x="1061.0" y="1247.0" type="line"/>
      <point x="-12.0" y="1247.0" type="line"/>
    </contour>
  </outline>
</glyph>
<glyph name="k_ra-deva" format="2">
  <advance width="1168.0"/>
  <anchor x="110.0" y="0.0" name="nukta"/>
  <outline>
    <contour>
      <point x="253.0" y="-36.0" type="line"/>
      <point x="764.0" y="370.0" type="line"/>
      <point x="728.0" y="434.0" type="line"/>
      <point x="180.0" y="59.0" type="line"/>
    </contour>
    <component base="k-deva"/>
  </outline>
</glyph>
<glyph name="l_bha-deva" format="2">
  <advance width="2016.0"/>
  <anchor x="1740.0" y="0.0" name="bottom"/>
  <anchor x="1637.0" y="1247.0" name="candra"/>
  <anchor x="1186.0" y="44.0" name="nukta"/>
  <anchor x="1740.0" y="1247.0" name="top"/>
  <outline>
    <contour>
      <point x="316.0" y="31.0" type="curve"/>
      <point x="412.0" y="107.0" type="line"/>
      <point x="315.0" y="231.0"/>
      <point x="200.0" y="406.0"/>
      <point x="200.0" y="592.0" type="curve" smooth="yes"/>
      <point x="200.0" y="745.0"/>
      <point x="286.0" y="801.0"/>
      <point x="390.0" y="801.0" type="curve" smooth="yes"/>
      <point x="511.0" y="801.0"/>
      <point x="584.0" y="721.0"/>
      <point x="642.0" y="591.0" type="curve"/>
      <point x="679.0" y="687.0" type="line"/>
      <point x="605.0" y="857.0"/>
      <point x="503.0" y="920.0"/>
      <point x="367.0" y="920.0" type="curve" smooth="yes"/>
      <point x="184.0" y="920.0"/>
      <point x="74.0" y="809.0"/>
      <point x="74.0" y="608.0" type="curve" smooth="yes"/>
      <point x="74.0" y="352.0"/>
      <point x="235.0" y="131.0"/>
    </contour>
    <contour>
      <point x="614.0" y="471.0" type="curve"/>
      <point x="728.0" y="498.0" type="line"/>
      <point x="718.0" y="532.0"/>
      <point x="712.0" y="567.0"/>
      <point x="712.0" y="602.0" type="curve" smooth="yes"/>
      <point x="712.0" y="706.0"/>
      <point x="770.0" y="794.0"/>
      <point x="873.0" y="794.0" type="curve" smooth="yes"/>
      <point x="991.0" y="794.0"/>
      <point x="1043.0" y="718.0"/>
      <point x="1087.0" y="559.0" type="curve"/>
      <point x="1151.0" y="635.0" type="line"/>
      <point x="1106.0" y="818.0"/>
      <point x="1016.0" y="912.0"/>
      <point x="856.0" y="912.0" type="curve" smooth="yes"/>
      <point x="701.0" y="912.0"/>
      <point x="588.0" y="771.0"/>
      <point x="588.0" y="607.0" type="curve" smooth="yes"/>
      <point x="588.0" y="560.0"/>
      <point x="597.0" y="514.0"/>
    </contour>
    <contour>
      <point x="-12.0" y="1143.0" type="line"/>
      <point x="771.0" y="1143.0" type="line"/>
      <point x="771.0" y="1247.0" type="line"/>
      <point x="-12.0" y="1247.0" type="line"/>
    </contour>
    <component base="bha-deva" xOffset="801.0"/>
  </outline>
</glyph>
<glyph name="l_ra-deva" format="2">
  <advance width="941.0"/>
  <outline>
    <contour>
      <point x="699.0" y="182.0" type="line"/>
      <point x="1172.0" y="553.0" type="line"/>
      <point x="1143.0" y="660.0" type="line"/>
      <point x="621.0" y="274.0" type="line"/>
    </contour>
    <component base="l-deva"/>
  </outline>
</glyph>
<glyph name="n_tha-deva" format="2">
  <advance width="1766.0"/>
  <anchor x="189.0" y="84.0" name="nukta"/>
  <anchor x="1489.0" y="0.0" name="bottom"/>
  <anchor x="1418.0" y="1247.0" name="candra"/>
  <anchor x="1489.0" y="1247.0" name="top"/>
  <outline>
    <contour>
      <point x="186.0" y="387.0" type="line"/>
      <point x="282.0" y="387.0"/>
      <point x="300.0" y="449.0"/>
      <point x="300.0" y="525.0" type="curve" smooth="yes"/>
      <point x="300.0" y="700.0" type="line"/>
      <point x="50.0" y="700.0" type="line"/>
      <point x="50.0" y="588.0" type="line"/>
    </contour>
    <contour>
      <point x="186.0" y="589.0" type="line"/>
      <point x="741.0" y="589.0" type="line"/>
      <point x="741.0" y="701.0" type="line"/>
      <point x="186.0" y="700.0" type="line"/>
    </contour>
    <contour>
      <point x="-12.0" y="1143.0" type="line"/>
      <point x="591.0" y="1143.0" type="line"/>
      <point x="591.0" y="1247.0" type="line"/>
      <point x="-12.0" y="1247.0" type="line"/>
    </contour>
    <component base="tha-deva" xOffset="557.0"/>
  </outline>
</glyph>
<glyph name="nine.tf" format="2">
  <advance width="1003.0"/>
  <outline>
    <contour>
      <point x="436.0" y="-200.0" type="curve" smooth="yes"/>
      <point x="700.0" y="-200.0"/>
      <point x="887.0" y="16.0"/>
      <point x="887.0" y="539.0" type="curve" smooth="yes"/>
      <point x="887.0" y="991.0"/>
      <point x="727.0" y="1196.0"/>
      <point x="456.0" y="1196.0" type="curve" smooth="yes"/>
      <point x="248.0" y="1196.0"/>
      <point x="67.0" y="1016.0"/>
      <point x="67.0" y="771.0" type="curve" smooth="yes"/>
      <point x="67.0" y="505.0"/>
      <point x="208.0" y="335.0"/>
      <point x="434.0" y="335.0" type="curve" smooth="yes"/>
      <point x="562.0" y="335.0"/>
      <point x="678.0" y="396.0"/>
      <point x="757.0" y="502.0" type="curve"/>
      <point x="752.0" y="70.0"/>
      <point x="627.0" y="-84.0"/>
      <point x="433.0" y="-84.0" type="curve" smooth="yes"/>
      <point x="349.0" y="-84.0"/>
      <point x="251.0" y="-44.0"/>
      <point x="203.0" y="17.0" type="curve"/>
      <point x="130.0" y="-71.0" type="line"/>
      <point x="211.0" y="-153.0"/>
      <point x="304.0" y="-200.0"/>
    </contour>
    <contour>
      <point x="455.0" y="444.0" type="curve" smooth="yes"/>
      <point x="273.0" y="444.0"/>
      <point x="194.0" y="582.0"/>
      <point x="194.0" y="763.0" type="curve" smooth="yes"/>
      <point x="194.0" y="945.0"/>
      <point x="311.0" y="1085.0"/>
      <point x="457.0" y="1085.0" type="curve" smooth="yes"/>
      <point x="660.0" y="1085.0"/>
      <point x="755.0" y="921.0"/>
      <point x="760.0" y="623.0" type="curve"/>
      <point x="664.0" y="490.0"/>
      <point x="548.0" y="444.0"/>
    </contour>
  </outline>
</glyph>
<glyph name="nn_ra-deva" format="2">
  <advance width="999.0"/>
  <outline>
    <contour>
      <point x="575.0" y="-21.0" type="line"/>
      <point x="1236.0" y="467.0" type="line"/>
      <point x="1190.0" y="560.0" type="line"/>
      <point x="499.0" y="72.0" type="line"/>
    </contour>
    <component base="nn-deva"/>
  </outline>
</glyph>
<glyph name="one.lf" format="2">
  <advance width="736.0"/>
  <outline>
    <contour>
      <point x="346.0" y="0.0" type="line"/>
      <point x="482.0" y="0.0" type="line"/>
      <point x="482.0" y="1350.0" type="line"/>
      <point x="376.0" y="1350.0" type="line"/>
      <point x="308.0" y="1310.0"/>
      <point x="224.0" y="1274.0"/>
      <point x="108.0" y="1255.0" type="curve"/>
      <point x="108.0" y="1160.0" type="line"/>
      <point x="346.0" y="1179.0" type="line"/>
    </contour>
  </outline>
</glyph>
<glyph name="one.tf" format="2">
  <advance width="1003.0"/>
  <outline>
    <contour>
      <point x="166.0" y="0.0" type="line"/>
      <point x="881.0" y="0.0" type="line"/>
      <point x="881.0" y="115.0" type="line"/>
      <point x="605.0" y="115.0" type="line"/>
      <point x="605.0" y="1173.0" type="line"/>
      <point x="499.0" y="1173.0" type="line"/>
      <point x="431.0" y="1134.0"/>
      <point x="346.0" y="1102.0"/>
      <point x="232.0" y="1082.0" type="curve"/>
      <point x="232.0" y="989.0" type="line"/>
      <point x="468.0" y="1006.0" type="line"/>
      <point x="468.0" y="115.0" type="line"/>
      <point x="166.0" y="115.0" type="line"/>
    </contour>
  </outline>
</glyph>
<glyph name="p_na-deva" format="2">
  <advance width="1165.0"/>
  <anchor x="889.0" y="0.0" name="bottom"/>
  <anchor x="799.0" y="1247.0" name="candra"/>
  <anchor x="335.0" y="128.0" name="nukta"/>
  <anchor x="888.0" y="1247.0" name="top"/>
  <outline>
    <contour>
      <point x="469.0" y="-53.0" type="line"/>
      <point x="491.0" y="-33.0"/>
      <point x="499.0" y="-14.0"/>
      <point x="500.0" y="5.0" type="curve" smooth="yes"/>
      <point x="501.0" y="25.0"/>
      <point x="493.0" y="45.0"/>
      <point x="480.0" y="64.0" type="curve" smooth="yes"/>
      <point x="411.0" y="162.0" type="line"/>
      <point x="393.0" y="108.0" type="line"/>
      <point x="850.0" y="458.0" type="line"/>
      <point x="805.0" y="542.0" type="line"/>
      <point x="202.0" y="115.0" type="line"/>
      <point x="258.0" y="24.0" type="line"/>
    </contour>
    <component base="pa-deva"/>
  </outline>
</glyph>
<glyph name="ph_na-deva" format="2">
  <advance width="1565.0"/>
  <anchor x="33.0" y="326.0" name="nukta"/>
  <anchor x="830.0" y="0.0" name="bottom"/>
  <anchor x="821.0" y="1247.0" name="candra"/>
  <anchor x="830.0" y="1247.0" name="top"/>
  <outline>
    <contour>
      <point x="420.0" y="-53.0" type="line"/>
      <point x="442.0" y="-33.0"/>
      <point x="450.0" y="-14.0"/>
      <point x="451.0" y="5.0" type="curve" smooth="yes"/>
      <point x="452.0" y="25.0"/>
      <point x="444.0" y="45.0"/>
      <point x="431.0" y="64.0" type="curve" smooth="yes"/>
      <point x="362.0" y="162.0" type="line"/>
      <point x="344.0" y="108.0" type="line"/>
      <point x="801.0" y="458.0" type="line"/>
      <point x="756.0" y="542.0" type="line"/>
      <point x="153.0" y="115.0" type="line"/>
      <point x="209.0" y="24.0" type="line"/>
    </contour>
    <component base="pha-deva"/>
  </outline>
</glyph>
<glyph name="q_fa-deva" format="2">
  <advance width="2652.0"/>
  <anchor x="785.0" y="28.0" name="bottom"/>
  <anchor x="783.0" y="1248.0" name="candra"/>
  <anchor x="786.0" y="1292.0" name="top"/>
  <outline>
    <contour>
      <point x="722.0" y="0.0" type="line"/>
      <point x="848.0" y="0.0" type="line"/>
      <point x="848.0" y="1196.0" type="line"/>
      <point x="722.0" y="1196.0" type="line"/>
    </contour>
    <contour>
      <point x="410.0" y="223.0" type="curve" smooth="yes"/>
      <point x="557.0" y="223.0"/>
      <point x="695.0" y="288.0"/>
      <point x="778.0" y="392.0" type="curve"/>
      <point x="756.0" y="513.0" type="line"/>
      <point x="683.0" y="406.0"/>
      <point x="559.0" y="332.0"/>
      <point x="418.0" y="332.0" type="curve" smooth="yes"/>
      <point x="283.0" y="332.0"/>
      <point x="209.0" y="405.0"/>
      <point x="209.0" y="563.0" type="curve" smooth="yes"/>
      <point x="209.0" y="728.0"/>
      <point x="299.0" y="798.0"/>
      <point x="440.0" y="803.0" type="curve" smooth="yes"/>
      <point x="542.0" y="808.0"/>
      <point x="647.0" y="787.0"/>
      <point x="769.0" y="734.0" type="curve"/>
      <point x="769.0" y="821.0" type="line"/>
      <point x="671.0" y="883.0"/>
      <point x="552.0" y="915.0"/>
      <point x="440.0" y="915.0" type="curve" smooth="yes"/>
      <point x="208.0" y="915.0"/>
      <point x="79.0" y="797.0"/>
      <point x="79.0" y="568.0" type="curve" smooth="yes"/>
      <point x="79.0" y="372.0"/>
      <point x="192.0" y="223.0"/>
    </contour>
    <contour>
      <point x="1281.0" y="672.0" type="curve"/>
      <point x="1368.0" y="751.0" type="line"/>
      <point x="1323.0" y="823.0"/>
      <point x="1245.0" y="861.0"/>
      <point x="1148.0" y="861.0" type="curve" smooth="yes"/>
      <point x="1024.0" y="861.0"/>
      <point x="915.0" y="805.0"/>
      <point x="815.0" y="683.0" type="curve"/>
      <point x="815.0" y="506.0" type="line"/>
      <point x="936.0" y="670.0"/>
      <point x="1041.0" y="747.0"/>
      <point x="1139.0" y="747.0" type="curve" smooth="yes"/>
      <point x="1207.0" y="747.0"/>
      <point x="1257.0" y="725.0"/>
    </contour>
    <contour>
      <point x="337.0" y="125.0" type="curve" smooth="yes"/>
      <point x="280.0" y="125.0"/>
      <point x="255.0" y="101.0"/>
      <point x="255.0" y="44.0" type="curve" smooth="yes"/>
      <point x="255.0" y="-12.0"/>
      <point x="280.0" y="-36.0"/>
      <point x="337.0" y="-36.0" type="curve" smooth="yes"/>
      <point x="394.0" y="-36.0"/>
      <point x="418.0" y="-12.0"/>
      <point x="418.0" y="44.0" type="curve" smooth="yes"/>
      <point x="418.0" y="101.0"/>
      <point x="394.0" y="125.0"/>
    </contour>
    <contour>
      <point x="1576.0" y="332.0" type="curve" smooth="yes"/>
      <point x="1691.0" y="332.0"/>
      <point x="1840.0" y="391.0"/>
      <point x="1930.0" y="515.0" type="curve"/>
      <point x="1914.0" y="639.0" type="line"/>
      <point x="1816.0" y="507.0"/>
      <point x="1692.0" y="447.0"/>
      <point x="1582.0" y="446.0" type="curve" smooth="yes"/>
      <point x="1431.0" y="445.0"/>
      <point x="1379.0" y="534.0"/>
      <point x="1379.0" y="683.0" type="curve" smooth="yes"/>
      <point x="1379.0" y="1186.0" type="line"/>
      <point x="1252.0" y="1186.0" type="line"/>
      <point x="1252.0" y="700.0" type="line" smooth="yes"/>
      <point x="1252.0" y="457.0"/>
      <point x="1363.0" y="332.0"/>
    </contour>
    <contour>
      <point x="1884.0" y="0.0" type="line"/>
      <point x="2010.0" y="0.0" type="line"/>
      <point x="2010.0" y="1191.0" type="line"/>
      <point x="1884.0" y="1191.0" type="line"/>
    </contour>
    <contour>
      <point x="2430.0" y="168.0" type="line"/>
      <point x="2537.0" y="300.0"/>
      <point x="2576.0" y="440.0"/>
      <point x="2576.0" y="555.0" type="curve" smooth="yes"/>
      <point x="2576.0" y="736.0"/>
      <point x="2475.0" y="861.0"/>
      <point x="2310.0" y="861.0" type="curve" smooth="yes"/>
      <point x="2187.0" y="861.0"/>
      <point x="2077.0" y="805.0"/>
      <point x="1977.0" y="683.0" type="curve"/>
      <point x="1969.0" y="509.0" type="line"/>
      <point x="2091.0" y="669.0"/>
      <point x="2199.0" y="747.0"/>
      <point x="2302.0" y="747.0" type="curve" smooth="yes"/>
      <point x="2406.0" y="747.0"/>
      <point x="2458.0" y="676.0"/>
      <point x="2458.0" y="560.0" type="curve" smooth="yes"/>
      <point x="2458.0" y="468.0"/>
      <point x="2421.0" y="357.0"/>
      <point x="2331.0" y="236.0" type="curve"/>
    </contour>
    <contour>
      <point x="1457.0" y="169.0" type="curve" smooth="yes"/>
      <point x="1400.0" y="169.0"/>
      <point x="1375.0" y="145.0"/>
      <point x="1375.0" y="88.0" type="curve" smooth="yes"/>
      <point x="1375.0" y="32.0"/>
      <point x="1400.0" y="8.0"/>
      <point x="1457.0" y="8.0" type="curve" smooth="yes"/>
      <point x="1514.0" y="8.0"/>
      <point x="1538.0" y="32.0"/>
      <point x="1538.0" y="88.0" type="curve" smooth="yes"/>
      <point x="1538.0" y="145.0"/>
      <point x="1514.0" y="169.0"/>
    </contour>
    <contour>
      <point x="-12.0" y="1143.0" type="line"/>
      <point x="2665.0" y="1143.0" type="line"/>
      <point x="2665.0" y="1247.0" type="line"/>
      <point x="-12.0" y="1247.0" type="line"/>
    </contour>
  </outline>
</glyph>
<glyph name="q_ta-deva" format="2">
  <advance width="2277.0"/>
  <anchor x="785.0" y="-2.0" name="bottom"/>
  <anchor x="461.0" y="1248.0" name="candra"/>
  <anchor x="1113.0" y="257.0" name="nukta"/>
  <anchor x="789.0" y="1247.0" name="top"/>
  <outline>
    <contour>
      <point x="722.0" y="0.0" type="line"/>
      <point x="848.0" y="0.0" type="line"/>
      <point x="848.0" y="1196.0" type="line"/>
      <point x="722.0" y="1196.0" type="line"/>
    </contour>
    <contour>
      <point x="370.0" y="223.0" type="curve" smooth="yes"/>
      <point x="517.0" y="223.0"/>
      <point x="695.0" y="288.0"/>
      <point x="778.0" y="392.0" type="curve"/>
      <point x="756.0" y="513.0" type="line"/>
      <point x="683.0" y="406.0"/>
      <point x="559.0" y="332.0"/>
      <point x="418.0" y="332.0" type="curve" smooth="yes"/>
      <point x="283.0" y="332.0"/>
      <point x="209.0" y="405.0"/>
      <point x="209.0" y="563.0" type="curve" smooth="yes"/>
      <point x="209.0" y="728.0"/>
      <point x="299.0" y="798.0"/>
      <point x="440.0" y="803.0" type="curve" smooth="yes"/>
      <point x="542.0" y="807.0"/>
      <point x="647.0" y="787.0"/>
      <point x="769.0" y="734.0" type="curve"/>
      <point x="769.0" y="821.0" type="line"/>
      <point x="671.0" y="883.0"/>
      <point x="552.0" y="915.0"/>
      <point x="440.0" y="915.0" type="curve" smooth="yes"/>
      <point x="208.0" y="915.0"/>
      <point x="79.0" y="797.0"/>
      <point x="79.0" y="568.0" type="curve" smooth="yes"/>
      <point x="79.0" y="372.0"/>
      <point x="152.0" y="223.0"/>
    </contour>
    <contour>
      <point x="1281.0" y="672.0" type="curve"/>
      <point x="1368.0" y="751.0" type="line"/>
      <point x="1323.0" y="823.0"/>
      <point x="1245.0" y="861.0"/>
      <point x="1148.0" y="861.0" type="curve" smooth="yes"/>
      <point x="1024.0" y="861.0"/>
      <point x="915.0" y="805.0"/>
      <point x="815.0" y="683.0" type="curve"/>
      <point x="815.0" y="506.0" type="line"/>
      <point x="936.0" y="670.0"/>
      <point x="1041.0" y="747.0"/>
      <point x="1139.0" y="747.0" type="curve" smooth="yes"/>
      <point x="1207.0" y="747.0"/>
      <point x="1257.0" y="725.0"/>
    </contour>
    <contour>
      <point x="137.0" y="125.0" type="curve" smooth="yes"/>
      <point x="80.0" y="125.0"/>
      <point x="55.0" y="101.0"/>
      <point x="55.0" y="44.0" type="curve" smooth="yes"/>
      <point x="55.0" y="-12.0"/>
      <point x="80.0" y="-36.0"/>
      <point x="137.0" y="-36.0" type="curve" smooth="yes"/>
      <point x="194.0" y="-36.0"/>
      <point x="218.0" y="-12.0"/>
      <point x="218.0" y="44.0" type="curve" smooth="yes"/>
      <point x="218.0" y="101.0"/>
      <point x="194.0" y="125.0"/>
    </contour>
    <contour>
      <point x="1524.0" y="-30.0" type="curve"/>
      <point x="1625.0" y="39.0" type="line"/>
      <point x="1472.0" y="250.0"/>
      <point x="1383.0" y="412.0"/>
      <point x="1383.0" y="552.0" type="curve" smooth="yes"/>
      <point x="1383.0" y="693.0"/>
      <point x="1460.0" y="713.0"/>
      <point x="1612.0" y="713.0" type="curve" smooth="yes"/>
      <point x="2007.0" y="713.0" type="line"/>
      <point x="1974.0" y="828.0" type="line"/>
      <point x="1572.0" y="828.0" type="line" smooth="yes"/>
      <point x="1330.0" y="829.0"/>
      <point x="1253.0" y="713.0"/>
      <point x="1253.0" y="570.0" type="curve" smooth="yes"/>
      <point x="1253.0" y="366.0"/>
      <point x="1400.0" y="130.0"/>
    </contour>
    <contour>
      <point x="1937.0" y="0.0" type="line"/>
      <point x="2063.0" y="0.0" type="line"/>
      <point x="2063.0" y="1191.0" type="line"/>
      <point x="1937.0" y="1191.0" type="line"/>
    </contour>
    <contour>
      <point x="-12.0" y="1143.0" type="line"/>
      <point x="2290.0" y="1143.0" type="line"/>
      <point x="2290.0" y="1247.0" type="line"/>
      <point x="-12.0" y="1247.0" type="line"/>
    </contour>
  </outline>
</glyph>
<glyph name="s_na-deva" format="2">
  <advance width="1333.0"/>
  <anchor x="1076.0" y="0.0" name="bottom"/>
  <anchor x="726.0" y="1248.0" name="candra"/>
  <anchor x="179.0" y="44.0" name="nukta"/>
  <anchor x="1076.0" y="1247.0" name="top"/>
  <outline>
    <contour>
      <point x="448.0" y="-13.0" type="line"/>
      <point x="547.0" y="61.0" type="line"/>
      <point x="164.0" y="622.0" type="line"/>
      <point x="144.0" y="603.0" type="line"/>
      <point x="166.0" y="575.0"/>
      <point x="210.0" y="545.0"/>
      <point x="269.0" y="545.0" type="curve" smooth="yes"/>
      <point x="401.0" y="545.0"/>
      <point x="478.0" y="621.0"/>
      <point x="478.0" y="801.0" type="curve" smooth="yes"/>
      <point x="478.0" y="1191.0" type="line"/>
      <point x="352.0" y="1190.0" type="line"/>
      <point x="352.0" y="795.0" type="line" smooth="yes"/>
      <point x="352.0" y="694.0"/>
      <point x="325.0" y="644.0"/>
      <point x="237.0" y="644.0" type="curve" smooth="yes"/>
      <point x="189.0" y="644.0"/>
      <point x="151.0" y="666.0"/>
      <point x="114.0" y="695.0" type="curve"/>
      <point x="36.0" y="630.0" type="line"/>
    </contour>
    <contour>
      <point x="728.0" y="530.0" type="curve" smooth="yes"/>
      <point x="821.0" y="530.0"/>
      <point x="1012.0" y="542.0"/>
      <point x="1088.0" y="568.0" type="curve"/>
      <point x="1088.0" y="688.0" type="line"/>
      <point x="1013.0" y="658.0"/>
      <point x="818.0" y="642.0"/>
      <point x="723.0" y="642.0" type="curve" smooth="yes"/>
      <point x="610.0" y="642.0"/>
      <point x="497.0" y="660.0"/>
      <point x="419.0" y="690.0" type="curve"/>
      <point x="375.0" y="600.0" type="line"/>
      <point x="481.0" y="553.0"/>
      <point x="601.0" y="530.0"/>
    </contour>
    <contour>
      <point x="1013.0" y="0.0" type="line"/>
      <point x="1139.0" y="0.0" type="line"/>
      <point x="1139.0" y="1172.0" type="line"/>
      <point x="1013.0" y="1172.0" type="line"/>
    </contour>
    <contour>
      <point x="-21.0" y="1143.0" type="line"/>
      <point x="1346.0" y="1143.0" type="line"/>
      <point x="1346.0" y="1247.0" type="line"/>
      <point x="-21.0" y="1247.0" type="line"/>
    </contour>
    <contour>
      <point x="832.0" y="89.0" type="line"/>
      <point x="854.0" y="109.0"/>
      <point x="862.0" y="128.0"/>
      <point x="863.0" y="147.0" type="curve" smooth="yes"/>
      <point x="864.0" y="167.0"/>
      <point x="856.0" y="187.0"/>
      <point x="843.0" y="206.0" type="curve" smooth="yes"/>
      <point x="774.0" y="304.0" type="line"/>
      <point x="756.0" y="250.0" type="line"/>
      <point x="1115.0" y="537.0" type="line"/>
      <point x="1070.0" y="621.0" type="line"/>
      <point x="565.0" y="257.0" type="line"/>
      <point x="621.0" y="166.0" type="line"/>
    </contour>
  </outline>
</glyph>
<glyph name="s_ta_ra-deva" format="2">
  <advance width="1840.0"/>
  <anchor x="1527.0" y="28.0" name="bottom"/>
  <anchor x="1125.0" y="1248.0" name="candra"/>
  <anchor x="1527.0" y="1288.0" name="top"/>
  <anchor x="112.0" y="163.0" name="nukta"/>
  <outline>
    <contour>
      <point x="1466.0" y="552.0" type="curve"/>
      <point x="1537.0" y="603.0" type="line"/>
      <point x="1302.0" y="898.0"/>
      <point x="1192.0" y="958.0"/>
      <point x="1071.0" y="958.0" type="curve" smooth="yes"/>
      <point x="819.0" y="958.0"/>
      <point x="705.0" y="667.0"/>
      <point x="493.0" y="667.0" type="curve" smooth="yes"/>
      <point x="458.0" y="667.0"/>
      <point x="410.0" y="678.0"/>
      <point x="385.0" y="688.0" type="curve"/>
      <point x="343.0" y="605.0" type="line"/>
      <point x="397.0" y="577.0"/>
      <point x="460.0" y="563.0"/>
      <point x="521.0" y="563.0" type="curve" smooth="yes"/>
      <point x="757.0" y="563.0"/>
      <point x="884.0" y="843.0"/>
      <point x="1077.0" y="843.0" type="curve" smooth="yes"/>
      <point x="1197.0" y="843.0"/>
      <point x="1293.0" y="743.0"/>
    </contour>
    <contour>
      <point x="901.0" y="23.0" type="line"/>
      <point x="1538.0" y="534.0" type="line"/>
      <point x="1507.0" y="634.0" type="line"/>
      <point x="823.0" y="117.0" type="line"/>
    </contour>
    <contour>
      <point x="1464.0" y="-1.0" type="line"/>
      <point x="1590.0" y="-1.0" type="line"/>
      <point x="1590.0" y="1160.0" type="line"/>
      <point x="1464.0" y="1160.0" type="line"/>
    </contour>
    <contour>
      <point x="513.0" y="1143.0" type="line"/>
      <point x="1853.0" y="1143.0" type="line"/>
      <point x="1853.0" y="1247.0" type="line"/>
      <point x="513.0" y="1247.0" type="line"/>
    </contour>
    <component base="ra-deva" xOffset="-9.0"/>
  </outline>
</glyph>
<glyph name="seven.lf" format="2">
  <advance width="993.0"/>
  <outline>
    <contour>
      <point x="351.0" y="0.0" type="curve"/>
      <point x="494.0" y="0.0" type="line"/>
      <point x="516.0" y="511.0"/>
      <point x="581.0" y="862.0"/>
      <point x="888.0" y="1266.0" type="curve"/>
      <point x="888.0" y="1350.0" type="line"/>
      <point x="90.0" y="1350.0" type="line"/>
      <point x="90.0" y="1231.0" type="line"/>
      <point x="729.0" y="1231.0" type="line"/>
      <point x="473.0" y="868.0"/>
      <point x="373.0" y="507.0"/>
    </contour>
  </outline>
</glyph>
<glyph name="six.osf" format="2">
  <advance width="1047.0"/>
  <outline>
    <contour>
      <point x="562.0" y="-25.0" type="curve" smooth="yes"/>
      <point x="767.0" y="-25.0"/>
      <point x="938.0" y="152.0"/>
      <point x="938.0" y="397.0" type="curve" smooth="yes"/>
      <point x="938.0" y="684.0"/>
      <point x="795.0" y="828.0"/>
      <point x="568.0" y="828.0" type="curve" smooth="yes"/>
      <point x="456.0" y="828.0"/>
      <point x="338.0" y="764.0"/>
      <point x="253.0" y="659.0" type="curve"/>
      <point x="259.0" y="1107.0"/>
      <point x="423.0" y="1254.0"/>
      <point x="615.0" y="1254.0" type="curve" smooth="yes"/>
      <point x="698.0" y="1254.0"/>
      <point x="778.0" y="1224.0"/>
      <point x="833.0" y="1157.0" type="curve"/>
      <point x="911.0" y="1244.0" type="line"/>
      <point x="840.0" y="1322.0"/>
      <point x="746.0" y="1370.0"/>
      <point x="612.0" y="1370.0" type="curve" smooth="yes"/>
      <point x="355.0" y="1370.0"/>
      <point x="121.0" y="1170.0"/>
      <point x="121.0" y="629.0" type="curve" smooth="yes"/>
      <point x="121.0" y="213.0"/>
      <point x="304.0" y="-25.0"/>
    </contour>
    <contour>
      <point x="563.0" y="86.0" type="curve" smooth="yes"/>
      <point x="378.0" y="86.0"/>
      <point x="275.0" y="273.0"/>
      <point x="256.0" y="542.0" type="curve"/>
      <point x="352.0" y="673.0"/>
      <point x="461.0" y="721.0"/>
      <point x="547.0" y="721.0" type="curve" smooth="yes"/>
      <point x="724.0" y="721.0"/>
      <point x="805.0" y="595.0"/>
      <point x="805.0" y="397.0" type="curve" smooth="yes"/>
      <point x="805.0" y="219.0"/>
      <point x="701.0" y="86.0"/>
    </contour>
  </outline>
</glyph>
<glyph name="three.lf" format="2">
  <advance width="1003.0"/>
  <outline>
    <contour>
      <point x="480.0" y="-25.0" type="curve" smooth="yes"/>
      <point x="719.0" y="-25.0"/>
      <point x="897.0" y="124.0"/>
      <point x="897.0" y="353.0" type="curve" smooth="yes"/>
      <point x="897.0" y="535.0"/>
      <point x="768.0" y="658.0"/>
      <point x="609.0" y="682.0" type="curve"/>
      <point x="609.0" y="690.0" type="line"/>
      <point x="751.0" y="742.0"/>
      <point x="851.0" y="873.0"/>
      <point x="851.0" y="1036.0" type="curve" smooth="yes"/>
      <point x="851.0" y="1243.0"/>
      <point x="690.0" y="1370.0"/>
      <point x="472.0" y="1370.0" type="curve" smooth="yes"/>
      <point x="319.0" y="1370.0"/>
      <point x="202.0" y="1308.0"/>
      <point x="106.0" y="1216.0" type="curve"/>
      <point x="181.0" y="1128.0" type="line"/>
      <point x="258.0" y="1207.0"/>
      <point x="354.0" y="1258.0"/>
      <point x="468.0" y="1258.0" type="curve" smooth="yes"/>
      <point x="616.0" y="1258.0"/>
      <point x="711.0" y="1162.0"/>
      <point x="711.0" y="1027.0" type="curve" smooth="yes"/>
      <point x="711.0" y="881.0"/>
      <point x="613.0" y="736.0"/>
      <point x="325.0" y="736.0" type="curve"/>
      <point x="325.0" y="628.0" type="line"/>
      <point x="642.0" y="628.0"/>
      <point x="758.0" y="522.0"/>
      <point x="758.0" y="356.0" type="curve" smooth="yes"/>
      <point x="758.0" y="199.0"/>
      <point x="645.0" y="90.0"/>
      <point x="474.0" y="90.0" type="curve" smooth="yes"/>
      <point x="309.0" y="90.0"/>
      <point x="206.0" y="167.0"/>
      <point x="128.0" y="251.0" type="curve"/>
      <point x="55.0" y="160.0" type="line"/>
      <point x="142.0" y="67.0"/>
      <point x="271.0" y="-25.0"/>
    </contour>
  </outline>
</glyph>
<glyph name="three.osf" format="2">
  <advance width="1003.0"/>
  <outline>
    <contour>
      <point x="480.0" y="-174.0" type="curve" smooth="yes"/>
      <point x="714.0" y="-174.0"/>
      <point x="897.0" y="-32.0"/>
      <point x="897.0" y="203.0" type="curve" smooth="yes"/>
      <point x="897.0" y="391.0"/>
      <point x="768.0" y="506.0"/>
      <point x="609.0" y="542.0" type="curve"/>
      <point x="609.0" y="550.0" type="line"/>
      <point x="751.0" y="600.0"/>
      <point x="851.0" y="702.0"/>
      <point x="851.0" y="869.0" type="curve" smooth="yes"/>
      <point x="851.0" y="1080.0"/>
      <point x="691.0" y="1196.0"/>
      <point x="474.0" y="1196.0" type="curve" smooth="yes"/>
      <point x="321.0" y="1196.0"/>
      <point x="204.0" y="1130.0"/>
      <point x="107.0" y="1038.0" type="curve"/>
      <point x="183.0" y="950.0" type="line"/>
      <point x="259.0" y="1030.0"/>
      <point x="356.0" y="1082.0"/>
      <point x="470.0" y="1082.0" type="curve" smooth="yes"/>
      <point x="618.0" y="1082.0"/>
      <point x="711.0" y="997.0"/>
      <point x="711.0" y="859.0" type="curve" smooth="yes"/>
      <point x="711.0" y="710.0"/>
      <point x="613.0" y="596.0"/>
      <point x="325.0" y="596.0" type="curve"/>
      <point x="325.0" y="486.0" type="line"/>
      <point x="642.0" y="486.0"/>
      <point x="758.0" y="375.0"/>
      <point x="758.0" y="208.0" type="curve" smooth="yes"/>
      <point x="758.0" y="46.0"/>
      <point x="639.0" y="-58.0"/>
      <point x="474.0" y="-58.0" type="curve" smooth="yes"/>
      <point x="309.0" y="-58.0"/>
      <point x="206.0" y="16.0"/>
      <point x="128.0" y="99.0" type="curve"/>
      <point x="55.0" y="8.0" type="line"/>
      <point x="142.0" y="-85.0"/>
      <point x="271.0" y="-174.0"/>
    </contour>
  </outline>
</glyph>
<glyph name="tt_tt_ya-deva" format="2">
  <advance width="2072.0"/>
  <anchor x="1774.0" y="28.0" name="bottom"/>
  <anchor x="1777.0" y="1248.0" name="candra"/>
  <anchor x="1774.0" y="1288.0" name="top"/>
  <outline>
    <contour>
      <point x="896.0" y="1143.0" type="line"/>
      <point x="2085.0" y="1143.0" type="line"/>
      <point x="2085.0" y="1247.0" type="line"/>
      <point x="896.0" y="1247.0" type="line"/>
    </contour>
    <contour>
      <point x="1401.0" y="159.0" type="curve" smooth="yes"/>
      <point x="1528.0" y="159.0"/>
      <point x="1641.0" y="206.0"/>
      <point x="1731.0" y="300.0" type="curve"/>
      <point x="1735.0" y="461.0" type="line"/>
      <point x="1653.0" y="324.0"/>
      <point x="1506.0" y="274.0"/>
      <point x="1394.0" y="274.0" type="curve" smooth="yes"/>
      <point x="1246.0" y="274.0"/>
      <point x="1134.0" y="362.0"/>
      <point x="1098.0" y="530.0" type="curve"/>
      <point x="1076.0" y="482.0" type="line"/>
      <point x="1174.0" y="504.0"/>
      <point x="1355.0" y="581.0"/>
      <point x="1355.0" y="762.0" type="curve" smooth="yes"/>
      <point x="1355.0" y="933.0"/>
      <point x="1243.0" y="981.0"/>
      <point x="1064.0" y="981.0" type="curve" smooth="yes"/>
      <point x="735.0" y="981.0" type="line"/>
      <point x="750.0" y="877.0" type="line"/>
      <point x="1082.0" y="877.0" type="line" smooth="yes"/>
      <point x="1179.0" y="877.0"/>
      <point x="1236.0" y="849.0"/>
      <point x="1236.0" y="755.0" type="curve" smooth="yes"/>
      <point x="1236.0" y="686.0"/>
      <point x="1162.0" y="616.0"/>
      <point x="974.0" y="564.0" type="curve"/>
      <point x="1033.0" y="299.0"/>
      <point x="1181.0" y="159.0"/>
    </contour>
    <contour>
      <point x="1711.0" y="0.0" type="line"/>
      <point x="1837.0" y="0.0" type="line"/>
      <point x="1837.0" y="1170.0" type="line"/>
      <point x="1711.0" y="1170.0" type="line"/>
    </contour>
    <component base="tt_tta-deva"/>
  </outline>
</glyph>
<glyph name="tth_tth_ya-deva" format="2">
  <advance width="2186.0"/>
  <anchor x="1888.0" y="0.0" name="bottom"/>
  <anchor x="1891.0" y="1248.0" name="candra"/>
  <anchor x="1888.0" y="1288.0" name="top"/>
  <outline>
    <contour>
      <point x="1010.0" y="1143.0" type="line"/>
      <point x="2199.0" y="1143.0" type="line"/>
      <point x="2199.0" y="1247.0" type="line"/>
      <point x="1010.0" y="1247.0" type="line"/>
    </contour>
    <contour>
      <point x="1515.0" y="159.0" type="curve" smooth="yes"/>
      <point x="1642.0" y="159.0"/>
      <point x="1755.0" y="206.0"/>
      <point x="1845.0" y="300.0" type="curve"/>
      <point x="1849.0" y="461.0" type="line"/>
      <point x="1767.0" y="324.0"/>
      <point x="1620.0" y="274.0"/>
      <point x="1508.0" y="274.0" type="curve" smooth="yes"/>
      <point x="1360.0" y="274.0"/>
      <point x="1248.0" y="362.0"/>
      <point x="1212.0" y="530.0" type="curve"/>
      <point x="1190.0" y="482.0" type="line"/>
      <point x="1288.0" y="504.0"/>
      <point x="1469.0" y="581.0"/>
      <point x="1469.0" y="762.0" type="curve" smooth="yes"/>
      <point x="1469.0" y="933.0"/>
      <point x="1357.0" y="981.0"/>
      <point x="1178.0" y="981.0" type="curve" smooth="yes"/>
      <point x="749.0" y="981.0" type="line"/>
      <point x="764.0" y="877.0" type="line"/>
      <point x="1196.0" y="877.0" type="line" smooth="yes"/>
      <point x="1293.0" y="877.0"/>
      <point x="1350.0" y="849.0"/>
      <point x="1350.0" y="755.0" type="curve" smooth="yes"/>
      <point x="1350.0" y="686.0"/>
      <point x="1276.0" y="616.0"/>
      <point x="1088.0" y="564.0" type="curve"/>
      <point x="1147.0" y="299.0"/>
      <point x="1295.0" y="159.0"/>
    </contour>
    <contour>
      <point x="1825.0" y="0.0" type="line"/>
      <point x="1951.0" y="0.0" type="line"/>
      <point x="1951.0" y="1170.0" type="line"/>
      <point x="1825.0" y="1170.0" type="line"/>
    </contour>
    <component base="tth_ttha-deva"/>
  </outline>
</glyph>
<glyph name="ya-deva.post.1" format="2">
  <advance width="1155.0"/>
  <anchor x="857.0" y="0.0" name="bottom"/>
  <anchor x="670.0" y="1247.0" name="candra"/>
  <anchor x="858.0" y="1247.0" name="top"/>
  <outline>
    <contour>
      <point x="-21.0" y="1143.0" type="line"/>
      <point x="1168.0" y="1143.0" type="line"/>
      <point x="1168.0" y="1247.0" type="line"/>
      <point x="-21.0" y="1247.0" type="line"/>
    </contour>
    <contour>
      <point x="484.0" y="159.0" type="curve" smooth="yes"/>
      <point x="611.0" y="159.0"/>
      <point x="724.0" y="206.0"/>
      <point x="814.0" y="300.0" type="curve"/>
      <point x="818.0" y="461.0" type="line"/>
      <point x="736.0" y="324.0"/>
      <point x="589.0" y="274.0"/>
      <point x="477.0" y="274.0" type="curve" smooth="yes"/>
      <point x="329.0" y="274.0"/>
      <point x="217.0" y="362.0"/>
      <point x="181.0" y="530.0" type="curve"/>
      <point x="159.0" y="482.0" type="line"/>
      <point x="257.0" y="504.0"/>
      <point x="438.0" y="581.0"/>
      <point x="438.0" y="762.0" type="curve" smooth="yes"/>
      <point x="438.0" y="933.0"/>
      <point x="326.0" y="981.0"/>
      <point x="147.0" y="981.0" type="curve" smooth="yes"/>
      <point x="-282.0" y="981.0" type="line"/>
      <point x="-267.0" y="877.0" type="line"/>
      <point x="165.0" y="877.0" type="line" smooth="yes"/>
      <point x="262.0" y="877.0"/>
      <point x="319.0" y="849.0"/>
      <point x="319.0" y="755.0" type="curve" smooth="yes"/>
      <point x="319.0" y="686.0"/>
      <point x="245.0" y="616.0"/>
      <point x="57.0" y="564.0" type="curve"/>
      <point x="116.0" y="299.0"/>
      <point x="264.0" y="159.0"/>
    </contour>
    <contour>
      <point x="794.0" y="0.0" type="line"/>
      <point x="920.0" y="0.0" type="line"/>
      <point x="920.0" y="1170.0" type="line"/>
      <point x="794.0" y="1170.0" type="line"/>
    </contour>
  </outline>
</glyph>
<glyph name="yy_ra-deva" format="2">
  <advance width="1139.0"/>
  <anchor x="196.0" y="-132.0" name="bottom"/>
  <anchor x="587.0" y="1248.0" name="candra"/>
  <anchor x="196.0" y="64.0" name="nukta"/>
  <anchor x="863.0" y="1288.0" name="top"/>
  <outline>
    <contour>
      <point x="162.0" y="-35.0" type="line"/>
      <point x="670.0" y="334.0" type="line"/>
      <point x="637.0" y="403.0" type="line"/>
      <point x="89.0" y="62.0" type="line"/>
    </contour>
    <component base="ya-deva"/>
    <component base="nukta-deva" xOffset="266.0" yOffset="-15.0"/>
  </outline>
</glyph>
<glyph name="zero.lf" format="2">
  <advance width="1081.0"/>
  <outline>
    <contour>
      <point x="541.0" y="-25.0" type="curve" smooth="yes"/>
      <point x="815.0" y="-25.0"/>
      <point x="968.0" y="245.0"/>
      <point x="968.0" y="677.0" type="curve" smooth="yes"/>
      <point x="968.0" y="1108.0"/>
      <point x="815.0" y="1370.0"/>
      <point x="541.0" y="1370.0" type="curve" smooth="yes"/>
      <point x="267.0" y="1370.0"/>
      <point x="114.0" y="1110.0"/>
      <point x="114.0" y="677.0" type="curve" smooth="yes"/>
      <point x="114.0" y="245.0"/>
      <point x="267.0" y="-25.0"/>
    </contour>
    <contour>
      <point x="541.0" y="90.0" type="curve" smooth="yes"/>
      <point x="362.0" y="90.0"/>
      <point x="253.0" y="292.0"/>
      <point x="253.0" y="677.0" type="curve" smooth="yes"/>
      <point x="253.0" y="1062.0"/>
      <point x="362.0" y="1254.0"/>
      <point x="541.0" y="1254.0" type="curve" smooth="yes"/>
      <point x="719.0" y="1254.0"/>
      <point x="829.0" y="1062.0"/>
      <point x="829.0" y="677.0" type="curve" smooth="yes"/>
      <point x="829.0" y="292.0"/>
      <point x="719.0" y="90.0"/>
    </contour>
  </outline>
</glyph>
<glyph name="zero.tf" format="2">
  <advance width="1003.0"/>
  <outline>
    <contour>
      <point x="500.0" y="-25.0" type="curve" smooth="yes"/>
      <point x="755.0" y="-25.0"/>
      <point x="909.0" y="174.0"/>
      <point x="909.0" y="587.0" type="curve" smooth="yes"/>
      <point x="909.0" y="999.0"/>
      <point x="755.0" y="1196.0"/>
      <point x="500.0" y="1196.0" type="curve" smooth="yes"/>
      <point x="246.0" y="1196.0"/>
      <point x="93.0" y="999.0"/>
      <point x="93.0" y="587.0" type="curve" smooth="yes"/>
      <point x="93.0" y="174.0"/>
      <point x="246.0" y="-25.0"/>
    </contour>
    <contour>
      <point x="500.0" y="87.0" type="curve" smooth="yes"/>
      <point x="327.0" y="87.0"/>
      <point x="228.0" y="268.0"/>
      <point x="228.0" y="587.0" type="curve" smooth="yes"/>
      <point x="228.0" y="906.0"/>
      <point x="327.0" y="1083.0"/>
      <point x="500.0" y="1083.0" type="curve" smooth="yes"/>
      <point x="673.0" y="1083.0"/>
      <point x="774.0" y="906.0"/>
      <point x="774.0" y="587.0" type="curve" smooth="yes"/>
      <point x="774.0" y="268.0"/>
      <point x="673.0" y="87.0"/>
    </contour>
  </outline>
</glyph>
